#N canvas 827 239 527 327 12;
#X obj -3 -4 cnv 15 660 449 empty empty 77\ Resonator 20 12 0 15 #98b2b7 #373737 1;
#X obj 420 136 cnv 15 223 197 empty empty empty 20 12 0 14 #b7b7b7 #373737 0;
#X obj 94 35 keyboard 18 91 1 1 0 0 empty empty;
#X floatatom 60 693 6 0 0 0 - - - 16;
#X floatatom 213 693 6 0 0 0 - - - 16;
#X floatatom 362 693 6 0 0 0 - - - 16;
#X floatatom 514 693 6 0 0 0 - - - 16;
#X floatatom 664 693 6 0 0 0 - - - 16;
#X floatatom 812 693 6 0 0 0 - - - 16;
#X floatatom 1018 696 6 0 0 0 - - - 16;
#X floatatom 1171 696 6 0 0 0 - - - 16;
#X floatatom 1320 696 6 0 0 0 - - - 16;
#X floatatom 1481 696 6 0 0 0 - - - 16;
#X floatatom 1631 696 6 0 0 0 - - - 16;
#X floatatom 1779 696 6 0 0 0 - - - 16;
#X text 12 713 1;
#X text 980 713 2;
#X obj 1018 668 * 2;
#X obj 1171 668 * 2;
#X obj 1320 668 * 2;
#X obj 1481 668 * 2;
#X obj 1631 668 * 2;
#X obj 1779 668 * 2;
#X obj 3413 2031 clip~ -1 1;
#X obj 657 931 *~;
#X obj 677 806 t f b;
#X obj 758 767 abs~;
#X obj 726 806 snapshot~;
#X obj 726 882 vline~;
#X obj 677 767 env~;
#X obj 1622 931 *~;
#X obj 1642 806 t f b;
#X obj 1723 767 abs~;
#X obj 1691 806 snapshot~;
#X obj 1691 882 vline~;
#X obj 1642 767 env~;
#X floatatom 1970 696 6 0 0 0 - - - 16;
#X floatatom 2123 696 6 0 0 0 - - - 16;
#X floatatom 2272 696 6 0 0 0 - - - 16;
#X floatatom 2433 696 6 0 0 0 - - - 16;
#X floatatom 2583 696 6 0 0 0 - - - 16;
#X floatatom 2731 696 6 0 0 0 - - - 16;
#X obj 2574 931 *~;
#X obj 2594 806 t f b;
#X obj 2675 767 abs~;
#X obj 2643 806 snapshot~;
#X obj 2643 875 vline~;
#X msg 2643 841 \$1 50;
#X obj 2594 767 env~;
#X text 1936 713 3;
#X obj 287 -529 loadbang;
#X obj 647 -569 adc~ 1;
#X text 2891 713 4;
#X obj 1970 668 * 2;
#X obj 2123 668 * 2;
#X obj 2272 668 * 2;
#X obj 2433 668 * 2;
#X obj 2583 668 * 2;
#X obj 2731 668 * 2;
#X obj 647 -526 s~ Left;
#X obj 579 608 r~ Left;
#X floatatom 2927 696 6 0 0 0 - - - 16;
#X floatatom 3080 696 6 0 0 0 - - - 16;
#X floatatom 3229 696 6 0 0 0 - - - 16;
#X floatatom 3390 696 6 0 0 0 - - - 16;
#X floatatom 3540 696 6 0 0 0 - - - 16;
#X floatatom 3688 696 6 0 0 0 - - - 16;
#X obj 2918 931 *~;
#X obj 3071 931 *~;
#X obj 3220 931 *~;
#X obj 3381 931 *~;
#X obj 3531 931 *~;
#X obj 3679 931 *~;
#X obj 2938 813 t f b;
#X obj 3019 774 abs~;
#X obj 2987 813 snapshot~;
#X obj 2987 882 vline~;
#X msg 2987 848 \$1 50;
#X obj 3091 813 t f b;
#X obj 3172 774 abs~;
#X obj 3140 813 snapshot~;
#X obj 3140 882 vline~;
#X msg 3140 848 \$1 50;
#X obj 2938 774 env~;
#X obj 3091 774 env~;
#X obj 3240 813 t f b;
#X obj 3321 774 abs~;
#X obj 3289 813 snapshot~;
#X obj 3289 882 vline~;
#X msg 3289 848 \$1 50;
#X obj 3240 774 env~;
#X obj 3401 813 t f b;
#X obj 3482 774 abs~;
#X obj 3450 813 snapshot~;
#X obj 3450 882 vline~;
#X msg 3450 848 \$1 50;
#X obj 3401 774 env~;
#X obj 3551 806 t f b;
#X obj 3632 767 abs~;
#X obj 3600 806 snapshot~;
#X obj 3600 875 vline~;
#X msg 3600 841 \$1 50;
#X obj 3551 767 env~;
#X obj 3699 806 t f b;
#X obj 3780 767 abs~;
#X obj 3748 806 snapshot~;
#X obj 3748 875 vline~;
#X msg 3748 841 \$1 50;
#X obj 3699 767 env~;
#X obj 2918 730 vcf~ 50;
#X obj 3071 730 vcf~ 50;
#X obj 3220 730 vcf~ 50;
#X obj 3381 730 vcf~ 50;
#X obj 3531 730 vcf~ 50;
#X obj 3679 730 vcf~ 50;
#X obj 2927 668 * 2;
#X obj 3080 668 * 2;
#X obj 3229 668 * 2;
#X obj 3390 668 * 2;
#X obj 3540 668 * 2;
#X obj 3688 668 * 2;
#X obj 1557 630 r~ Left;
#X obj 2515 629 r~ Left;
#X obj 2920 636 r~ Left;
#X floatatom 3893 696 6 0 0 0 - - - 16;
#X floatatom 4046 696 6 0 0 0 - - - 16;
#X floatatom 4195 696 6 0 0 0 - - - 16;
#X floatatom 4356 696 6 0 0 0 - - - 16;
#X floatatom 4506 696 6 0 0 0 - - - 16;
#X floatatom 4654 696 6 0 0 0 - - - 16;
#X obj 3884 931 *~;
#X obj 4037 931 *~;
#X obj 4186 931 *~;
#X obj 4347 931 *~;
#X obj 4497 931 *~;
#X obj 4645 931 *~;
#X obj 3904 813 t f b;
#X obj 3985 774 abs~;
#X obj 3953 813 snapshot~;
#X obj 3953 882 vline~;
#X msg 3953 848 \$1 50;
#X obj 4057 813 t f b;
#X obj 4138 774 abs~;
#X obj 4106 813 snapshot~;
#X obj 4106 882 vline~;
#X msg 4106 848 \$1 50;
#X obj 3904 774 env~;
#X obj 4057 774 env~;
#X obj 4206 813 t f b;
#X obj 4287 774 abs~;
#X obj 4255 813 snapshot~;
#X obj 4255 882 vline~;
#X msg 4255 848 \$1 50;
#X obj 4206 774 env~;
#X obj 4367 813 t f b;
#X obj 4448 774 abs~;
#X obj 4416 813 snapshot~;
#X obj 4416 882 vline~;
#X msg 4416 848 \$1 50;
#X obj 4367 774 env~;
#X obj 4517 806 t f b;
#X obj 4598 767 abs~;
#X obj 4566 806 snapshot~;
#X obj 4566 875 vline~;
#X msg 4566 841 \$1 50;
#X obj 4517 767 env~;
#X obj 4665 806 t f b;
#X obj 4746 767 abs~;
#X obj 4714 806 snapshot~;
#X obj 4714 875 vline~;
#X msg 4714 841 \$1 50;
#X obj 4665 767 env~;
#X obj 3884 730 vcf~ 50;
#X obj 4037 730 vcf~ 50;
#X obj 4186 730 vcf~ 50;
#X obj 4347 730 vcf~ 50;
#X obj 4497 730 vcf~ 50;
#X obj 4645 730 vcf~ 50;
#X obj 3893 668 * 2;
#X obj 4046 668 * 2;
#X obj 4195 668 * 2;
#X obj 4356 668 * 2;
#X obj 4506 668 * 2;
#X obj 4654 668 * 2;
#X obj 3886 636 r~ Left;
#X text 3857 713 5;
#X floatatom 3896 1297 6 0 0 0 - - - 16;
#X floatatom 4049 1297 6 0 0 0 - - - 16;
#X floatatom 4198 1297 6 0 0 0 - - - 16;
#X floatatom 4359 1297 6 0 0 0 - - - 16;
#X floatatom 4509 1297 6 0 0 0 - - - 16;
#X floatatom 4657 1297 6 0 0 0 - - - 16;
#X obj 3887 1532 *~;
#X obj 4040 1532 *~;
#X obj 4189 1532 *~;
#X obj 4350 1532 *~;
#X obj 4500 1532 *~;
#X obj 4648 1532 *~;
#X obj 3907 1414 t f b;
#X obj 3988 1375 abs~;
#X obj 3956 1414 snapshot~;
#X obj 3956 1483 vline~;
#X msg 3956 1449 \$1 50;
#X obj 4060 1414 t f b;
#X obj 4141 1375 abs~;
#X obj 4109 1414 snapshot~;
#X obj 4109 1483 vline~;
#X msg 4109 1449 \$1 50;
#X obj 3907 1375 env~;
#X obj 4060 1375 env~;
#X obj 4209 1414 t f b;
#X obj 4290 1375 abs~;
#X obj 4258 1414 snapshot~;
#X obj 4258 1483 vline~;
#X msg 4258 1449 \$1 50;
#X obj 4209 1375 env~;
#X obj 4370 1414 t f b;
#X obj 4451 1375 abs~;
#X obj 4419 1414 snapshot~;
#X obj 4419 1483 vline~;
#X msg 4419 1449 \$1 50;
#X obj 4370 1375 env~;
#X obj 4520 1407 t f b;
#X obj 4601 1368 abs~;
#X obj 4569 1407 snapshot~;
#X obj 4569 1476 vline~;
#X msg 4569 1442 \$1 50;
#X obj 4520 1368 env~;
#X obj 4668 1407 t f b;
#X obj 4749 1368 abs~;
#X obj 4717 1407 snapshot~;
#X obj 4717 1476 vline~;
#X msg 4717 1442 \$1 50;
#X obj 4668 1368 env~;
#X obj 3887 1331 vcf~ 50;
#X obj 4040 1331 vcf~ 50;
#X obj 4189 1331 vcf~ 50;
#X obj 4350 1331 vcf~ 50;
#X obj 4500 1331 vcf~ 50;
#X obj 4648 1331 vcf~ 50;
#X obj 3896 1269 * 2;
#X obj 4049 1269 * 2;
#X obj 4198 1269 * 2;
#X obj 4359 1269 * 2;
#X obj 4509 1269 * 2;
#X obj 4657 1269 * 2;
#X obj 3889 1237 r~ Left;
#X text 3860 1314 6;
#X floatatom 3894 1902 6 0 0 0 - - - 16;
#X floatatom 4047 1902 6 0 0 0 - - - 16;
#X floatatom 4196 1902 6 0 0 0 - - - 16;
#X floatatom 4357 1902 6 0 0 0 - - - 16;
#X floatatom 4507 1902 6 0 0 0 - - - 16;
#X floatatom 4655 1902 6 0 0 0 - - - 16;
#X obj 3885 2137 *~;
#X obj 4038 2137 *~;
#X obj 4187 2137 *~;
#X obj 4348 2137 *~;
#X obj 4498 2137 *~;
#X obj 4646 2137 *~;
#X obj 3905 2019 t f b;
#X obj 3986 1980 abs~;
#X obj 3954 2019 snapshot~;
#X obj 3954 2088 vline~;
#X msg 3954 2054 \$1 50;
#X obj 4058 2019 t f b;
#X obj 4139 1980 abs~;
#X obj 4107 2019 snapshot~;
#X obj 4107 2088 vline~;
#X msg 4107 2054 \$1 50;
#X obj 3905 1980 env~;
#X obj 4058 1980 env~;
#X obj 4207 2019 t f b;
#X obj 4288 1980 abs~;
#X obj 4256 2019 snapshot~;
#X obj 4256 2088 vline~;
#X msg 4256 2054 \$1 50;
#X obj 4207 1980 env~;
#X obj 4368 2019 t f b;
#X obj 4449 1980 abs~;
#X obj 4417 2019 snapshot~;
#X obj 4417 2088 vline~;
#X msg 4417 2054 \$1 50;
#X obj 4368 1980 env~;
#X obj 4518 2012 t f b;
#X obj 4599 1973 abs~;
#X obj 4567 2012 snapshot~;
#X obj 4567 2081 vline~;
#X msg 4567 2047 \$1 50;
#X obj 4518 1973 env~;
#X obj 4666 2012 t f b;
#X obj 4747 1973 abs~;
#X obj 4715 2012 snapshot~;
#X obj 4715 2081 vline~;
#X msg 4715 2047 \$1 50;
#X obj 4666 1973 env~;
#X obj 3885 1936 vcf~ 50;
#X obj 4038 1936 vcf~ 50;
#X obj 4187 1936 vcf~ 50;
#X obj 4348 1936 vcf~ 50;
#X obj 4498 1936 vcf~ 50;
#X obj 4646 1936 vcf~ 50;
#X obj 3894 1874 * 2;
#X obj 4047 1874 * 2;
#X obj 4196 1874 * 2;
#X obj 4357 1874 * 2;
#X obj 4507 1874 * 2;
#X obj 4655 1874 * 2;
#X obj 3887 1842 r~ Left;
#X text 3858 1919 7;
#X floatatom 3892 2502 6 0 0 0 - - - 16;
#X floatatom 4049 2502 6 0 0 0 - - - 16;
#X floatatom 4198 2502 6 0 0 0 - - - 16;
#X floatatom 4359 2502 6 0 0 0 - - - 16;
#X floatatom 4509 2502 6 0 0 0 - - - 16;
#X floatatom 4657 2502 6 0 0 0 - - - 16;
#X obj 3887 2737 *~;
#X obj 4040 2737 *~;
#X obj 4189 2737 *~;
#X obj 4350 2737 *~;
#X obj 4500 2737 *~;
#X obj 4648 2737 *~;
#X obj 3907 2619 t f b;
#X obj 3988 2580 abs~;
#X obj 3956 2619 snapshot~;
#X obj 3956 2688 vline~;
#X msg 3956 2654 \$1 50;
#X obj 4060 2619 t f b;
#X obj 4141 2580 abs~;
#X obj 4109 2619 snapshot~;
#X obj 4109 2688 vline~;
#X msg 4109 2654 \$1 50;
#X obj 3907 2580 env~;
#X obj 4060 2580 env~;
#X obj 4209 2619 t f b;
#X obj 4290 2580 abs~;
#X obj 4258 2619 snapshot~;
#X obj 4258 2688 vline~;
#X msg 4258 2654 \$1 50;
#X obj 4209 2580 env~;
#X obj 4370 2619 t f b;
#X obj 4451 2580 abs~;
#X obj 4419 2619 snapshot~;
#X obj 4419 2688 vline~;
#X msg 4419 2654 \$1 50;
#X obj 4370 2580 env~;
#X obj 4520 2612 t f b;
#X obj 4601 2573 abs~;
#X obj 4569 2612 snapshot~;
#X obj 4569 2681 vline~;
#X msg 4569 2647 \$1 50;
#X obj 4520 2573 env~;
#X obj 4668 2612 t f b;
#X obj 4749 2573 abs~;
#X obj 4717 2612 snapshot~;
#X obj 4717 2681 vline~;
#X msg 4717 2647 \$1 50;
#X obj 4668 2573 env~;
#X obj 3887 2536 vcf~ 50;
#X obj 4040 2536 vcf~ 50;
#X obj 4189 2536 vcf~ 50;
#X obj 4350 2536 vcf~ 50;
#X obj 4500 2536 vcf~ 50;
#X obj 4648 2536 vcf~ 50;
#X obj 3896 2474 * 2;
#X obj 4049 2474 * 2;
#X obj 4198 2474 * 2;
#X obj 4359 2474 * 2;
#X obj 4509 2474 * 2;
#X obj 4657 2474 * 2;
#X obj 3889 2442 r~ Left;
#X text 3860 2519 7;
#X floatatom 61 2945 6 0 0 0 - - - 16;
#X floatatom 214 2945 6 0 0 0 - - - 16;
#X floatatom 363 2945 6 0 0 0 - - - 16;
#X floatatom 515 2945 6 0 0 0 - - - 16;
#X floatatom 665 2945 6 0 0 0 - - - 16;
#X floatatom 813 2945 6 0 0 0 - - - 16;
#X floatatom 1019 2948 6 0 0 0 - - - 16;
#X floatatom 1172 2948 6 0 0 0 - - - 16;
#X floatatom 1321 2948 6 0 0 0 - - - 16;
#X floatatom 1482 2948 6 0 0 0 - - - 16;
#X floatatom 1632 2948 6 0 0 0 - - - 16;
#X floatatom 1780 2948 6 0 0 0 - - - 16;
#X text 13 2965 1;
#X text 981 2965 2;
#X obj 1019 2920 * 2;
#X obj 1172 2920 * 2;
#X obj 1321 2920 * 2;
#X obj 1482 2920 * 2;
#X obj 1632 2920 * 2;
#X obj 1780 2920 * 2;
#X obj 3414 4283 clip~ -1 1;
#X obj 658 3183 *~;
#X obj 678 3058 t f b;
#X obj 759 3019 abs~;
#X obj 727 3058 snapshot~;
#X obj 727 3134 vline~;
#X obj 678 3019 env~;
#X obj 1623 3183 *~;
#X obj 1643 3058 t f b;
#X obj 1724 3019 abs~;
#X obj 1692 3058 snapshot~;
#X obj 1692 3134 vline~;
#X obj 1643 3019 env~;
#X floatatom 1971 2948 6 0 0 0 - - - 16;
#X floatatom 2124 2948 6 0 0 0 - - - 16;
#X floatatom 2273 2948 6 0 0 0 - - - 16;
#X floatatom 2434 2948 6 0 0 0 - - - 16;
#X floatatom 2584 2948 6 0 0 0 - - - 16;
#X floatatom 2732 2948 6 0 0 0 - - - 16;
#X obj 2575 3183 *~;
#X obj 2595 3058 t f b;
#X obj 2676 3019 abs~;
#X obj 2644 3058 snapshot~;
#X obj 2644 3134 vline~;
#X obj 2595 3019 env~;
#X obj 2575 2982 vcf~ 50;
#X text 1937 2965 3;
#X text 2892 2965 4;
#X obj 1971 2920 * 2;
#X obj 2124 2920 * 2;
#X obj 2273 2920 * 2;
#X obj 2434 2920 * 2;
#X obj 2584 2920 * 2;
#X obj 2732 2920 * 2;
#X floatatom 2928 2948 6 0 0 0 - - - 16;
#X floatatom 3081 2948 6 0 0 0 - - - 16;
#X floatatom 3230 2948 6 0 0 0 - - - 16;
#X floatatom 3391 2948 6 0 0 0 - - - 16;
#X floatatom 3541 2948 6 0 0 0 - - - 16;
#X floatatom 3689 2948 6 0 0 0 - - - 16;
#X obj 2919 3183 *~;
#X obj 3072 3183 *~;
#X obj 3221 3183 *~;
#X obj 3382 3183 *~;
#X obj 3532 3183 *~;
#X obj 3680 3183 *~;
#X obj 2939 3065 t f b;
#X obj 3020 3026 abs~;
#X obj 2988 3065 snapshot~;
#X obj 2988 3134 vline~;
#X msg 2988 3100 \$1 50;
#X obj 3092 3065 t f b;
#X obj 3173 3026 abs~;
#X obj 3141 3065 snapshot~;
#X obj 3141 3134 vline~;
#X msg 3141 3100 \$1 50;
#X obj 2939 3026 env~;
#X obj 3092 3026 env~;
#X obj 3241 3065 t f b;
#X obj 3322 3026 abs~;
#X obj 3290 3065 snapshot~;
#X obj 3290 3134 vline~;
#X msg 3290 3100 \$1 50;
#X obj 3241 3026 env~;
#X obj 3402 3065 t f b;
#X obj 3483 3026 abs~;
#X obj 3451 3065 snapshot~;
#X obj 3451 3134 vline~;
#X msg 3451 3100 \$1 50;
#X obj 3402 3026 env~;
#X obj 3552 3058 t f b;
#X obj 3633 3019 abs~;
#X obj 3601 3058 snapshot~;
#X obj 3601 3127 vline~;
#X msg 3601 3093 \$1 50;
#X obj 3552 3019 env~;
#X obj 3700 3058 t f b;
#X obj 3781 3019 abs~;
#X obj 3749 3058 snapshot~;
#X obj 3749 3127 vline~;
#X msg 3749 3093 \$1 50;
#X obj 3700 3019 env~;
#X obj 2919 2982 vcf~ 50;
#X obj 3072 2982 vcf~ 50;
#X obj 3221 2982 vcf~ 50;
#X obj 3382 2982 vcf~ 50;
#X obj 3532 2982 vcf~ 50;
#X obj 3680 2982 vcf~ 50;
#X obj 2928 2920 * 2;
#X obj 3081 2920 * 2;
#X obj 3230 2920 * 2;
#X obj 3391 2920 * 2;
#X obj 3541 2920 * 2;
#X obj 3689 2920 * 2;
#X floatatom 3894 2948 6 0 0 0 - - - 16;
#X floatatom 4047 2948 6 0 0 0 - - - 16;
#X floatatom 4196 2948 6 0 0 0 - - - 16;
#X floatatom 4357 2948 6 0 0 0 - - - 16;
#X floatatom 4507 2948 6 0 0 0 - - - 16;
#X floatatom 4655 2948 6 0 0 0 - - - 16;
#X obj 3885 3183 *~;
#X obj 4038 3183 *~;
#X obj 4187 3183 *~;
#X obj 4348 3183 *~;
#X obj 4498 3183 *~;
#X obj 4646 3183 *~;
#X obj 3905 3065 t f b;
#X obj 3986 3026 abs~;
#X obj 3954 3065 snapshot~;
#X obj 3954 3134 vline~;
#X msg 3954 3100 \$1 50;
#X obj 4058 3065 t f b;
#X obj 4139 3026 abs~;
#X obj 4107 3065 snapshot~;
#X obj 4107 3134 vline~;
#X msg 4107 3100 \$1 50;
#X obj 3905 3026 env~;
#X obj 4058 3026 env~;
#X obj 4207 3065 t f b;
#X obj 4288 3026 abs~;
#X obj 4256 3065 snapshot~;
#X obj 4256 3134 vline~;
#X msg 4256 3100 \$1 50;
#X obj 4207 3026 env~;
#X obj 4368 3065 t f b;
#X obj 4449 3026 abs~;
#X obj 4417 3065 snapshot~;
#X obj 4417 3134 vline~;
#X msg 4417 3100 \$1 50;
#X obj 4368 3026 env~;
#X obj 4518 3058 t f b;
#X obj 4599 3019 abs~;
#X obj 4567 3058 snapshot~;
#X obj 4567 3127 vline~;
#X msg 4567 3093 \$1 50;
#X obj 4518 3019 env~;
#X obj 4666 3058 t f b;
#X obj 4747 3019 abs~;
#X obj 4715 3058 snapshot~;
#X obj 4715 3127 vline~;
#X msg 4715 3093 \$1 50;
#X obj 4666 3019 env~;
#X obj 3885 2982 vcf~ 50;
#X obj 4038 2982 vcf~ 50;
#X obj 4187 2982 vcf~ 50;
#X obj 4348 2982 vcf~ 50;
#X obj 4498 2982 vcf~ 50;
#X obj 4646 2982 vcf~ 50;
#X obj 3894 2920 * 2;
#X obj 4047 2920 * 2;
#X obj 4196 2920 * 2;
#X obj 4357 2920 * 2;
#X obj 4507 2920 * 2;
#X obj 4655 2920 * 2;
#X text 3858 2965 5;
#X floatatom 3897 3549 6 0 0 0 - - - 16;
#X floatatom 4050 3549 6 0 0 0 - - - 16;
#X floatatom 4199 3549 6 0 0 0 - - - 16;
#X floatatom 4360 3549 6 0 0 0 - - - 16;
#X floatatom 4510 3549 6 0 0 0 - - - 16;
#X floatatom 4658 3549 6 0 0 0 - - - 16;
#X obj 3888 3784 *~;
#X obj 4041 3784 *~;
#X obj 4190 3784 *~;
#X obj 4351 3784 *~;
#X obj 4501 3784 *~;
#X obj 4649 3784 *~;
#X obj 3908 3666 t f b;
#X obj 3989 3627 abs~;
#X obj 3957 3666 snapshot~;
#X obj 3957 3735 vline~;
#X msg 3957 3701 \$1 50;
#X obj 4061 3666 t f b;
#X obj 4142 3627 abs~;
#X obj 4110 3666 snapshot~;
#X obj 4110 3735 vline~;
#X msg 4110 3701 \$1 50;
#X obj 3908 3627 env~;
#X obj 4061 3627 env~;
#X obj 4210 3666 t f b;
#X obj 4291 3627 abs~;
#X obj 4259 3666 snapshot~;
#X obj 4259 3735 vline~;
#X msg 4259 3701 \$1 50;
#X obj 4210 3627 env~;
#X obj 4371 3666 t f b;
#X obj 4452 3627 abs~;
#X obj 4420 3666 snapshot~;
#X obj 4420 3735 vline~;
#X msg 4420 3701 \$1 50;
#X obj 4371 3627 env~;
#X obj 4521 3659 t f b;
#X obj 4602 3620 abs~;
#X obj 4570 3659 snapshot~;
#X obj 4570 3728 vline~;
#X msg 4570 3694 \$1 50;
#X obj 4521 3620 env~;
#X obj 4669 3659 t f b;
#X obj 4750 3620 abs~;
#X obj 4718 3659 snapshot~;
#X obj 4718 3728 vline~;
#X msg 4718 3694 \$1 50;
#X obj 4669 3620 env~;
#X obj 3888 3583 vcf~ 50;
#X obj 4041 3583 vcf~ 50;
#X obj 4190 3583 vcf~ 50;
#X obj 4351 3583 vcf~ 50;
#X obj 4501 3583 vcf~ 50;
#X obj 4649 3583 vcf~ 50;
#X obj 3897 3521 * 2;
#X obj 4050 3521 * 2;
#X obj 4199 3521 * 2;
#X obj 4360 3521 * 2;
#X obj 4510 3521 * 2;
#X obj 4658 3521 * 2;
#X text 3861 3566 6;
#X floatatom 3895 4154 6 0 0 0 - - - 16;
#X floatatom 4048 4154 6 0 0 0 - - - 16;
#X floatatom 4197 4154 6 0 0 0 - - - 16;
#X floatatom 4358 4154 6 0 0 0 - - - 16;
#X floatatom 4508 4154 6 0 0 0 - - - 16;
#X floatatom 4656 4154 6 0 0 0 - - - 16;
#X obj 3886 4389 *~;
#X obj 4039 4389 *~;
#X obj 4188 4389 *~;
#X obj 4349 4389 *~;
#X obj 4499 4389 *~;
#X obj 4647 4389 *~;
#X obj 3906 4271 t f b;
#X obj 3987 4232 abs~;
#X obj 3955 4271 snapshot~;
#X obj 3955 4340 vline~;
#X msg 3955 4306 \$1 50;
#X obj 4059 4271 t f b;
#X obj 4140 4232 abs~;
#X obj 4108 4271 snapshot~;
#X obj 4108 4340 vline~;
#X msg 4108 4306 \$1 50;
#X obj 3906 4232 env~;
#X obj 4059 4232 env~;
#X obj 4208 4271 t f b;
#X obj 4289 4232 abs~;
#X obj 4257 4271 snapshot~;
#X obj 4257 4340 vline~;
#X msg 4257 4306 \$1 50;
#X obj 4208 4232 env~;
#X obj 4369 4271 t f b;
#X obj 4450 4232 abs~;
#X obj 4418 4271 snapshot~;
#X obj 4418 4340 vline~;
#X msg 4418 4306 \$1 50;
#X obj 4369 4232 env~;
#X obj 4519 4264 t f b;
#X obj 4600 4225 abs~;
#X obj 4568 4264 snapshot~;
#X obj 4568 4333 vline~;
#X msg 4568 4299 \$1 50;
#X obj 4519 4225 env~;
#X obj 4667 4264 t f b;
#X obj 4748 4225 abs~;
#X obj 4716 4264 snapshot~;
#X obj 4716 4333 vline~;
#X msg 4716 4299 \$1 50;
#X obj 4667 4225 env~;
#X obj 3886 4188 vcf~ 50;
#X obj 4039 4188 vcf~ 50;
#X obj 4188 4188 vcf~ 50;
#X obj 4349 4188 vcf~ 50;
#X obj 4499 4188 vcf~ 50;
#X obj 4647 4188 vcf~ 50;
#X obj 3895 4126 * 2;
#X obj 4048 4126 * 2;
#X obj 4197 4126 * 2;
#X obj 4358 4126 * 2;
#X obj 4508 4126 * 2;
#X obj 4656 4126 * 2;
#X text 3859 4171 7;
#X floatatom 3893 4754 6 0 0 0 - - - 16;
#X floatatom 4050 4754 6 0 0 0 - - - 16;
#X floatatom 4199 4754 6 0 0 0 - - - 16;
#X floatatom 4360 4754 6 0 0 0 - - - 16;
#X floatatom 4510 4754 6 0 0 0 - - - 16;
#X floatatom 4658 4754 6 0 0 0 - - - 16;
#X obj 3888 4989 *~;
#X obj 4041 4989 *~;
#X obj 4190 4989 *~;
#X obj 4351 4989 *~;
#X obj 4501 4989 *~;
#X obj 4649 4989 *~;
#X obj 3908 4871 t f b;
#X obj 3989 4832 abs~;
#X obj 3957 4871 snapshot~;
#X obj 3957 4940 vline~;
#X msg 3957 4906 \$1 50;
#X obj 4061 4871 t f b;
#X obj 4142 4832 abs~;
#X obj 4110 4871 snapshot~;
#X obj 4110 4940 vline~;
#X msg 4110 4906 \$1 50;
#X obj 3908 4832 env~;
#X obj 4061 4832 env~;
#X obj 4210 4871 t f b;
#X obj 4291 4832 abs~;
#X obj 4259 4871 snapshot~;
#X obj 4259 4940 vline~;
#X msg 4259 4906 \$1 50;
#X obj 4210 4832 env~;
#X obj 4371 4871 t f b;
#X obj 4452 4832 abs~;
#X obj 4420 4871 snapshot~;
#X obj 4420 4940 vline~;
#X msg 4420 4906 \$1 50;
#X obj 4371 4832 env~;
#X obj 4521 4864 t f b;
#X obj 4602 4825 abs~;
#X obj 4570 4864 snapshot~;
#X obj 4570 4933 vline~;
#X msg 4570 4899 \$1 50;
#X obj 4521 4825 env~;
#X obj 4669 4864 t f b;
#X obj 4750 4825 abs~;
#X obj 4718 4864 snapshot~;
#X obj 4718 4933 vline~;
#X msg 4718 4899 \$1 50;
#X obj 4669 4825 env~;
#X obj 3888 4788 vcf~ 50;
#X obj 4041 4788 vcf~ 50;
#X obj 4190 4788 vcf~ 50;
#X obj 4351 4788 vcf~ 50;
#X obj 4501 4788 vcf~ 50;
#X obj 4649 4788 vcf~ 50;
#X obj 3897 4726 * 2;
#X obj 4050 4726 * 2;
#X obj 4199 4726 * 2;
#X obj 4360 4726 * 2;
#X obj 4510 4726 * 2;
#X obj 4658 4726 * 2;
#X text 3861 4771 7;
#X obj 739 -569 adc~ 2;
#X obj 739 -526 s~ Right;
#X obj 552 2841 r~ Right;
#X obj 1545 2841 r~ Right;
#X obj 2495 2841 r~ Right;
#X obj 2921 2888 r~ Right;
#X obj 3887 2888 r~ Right;
#X obj 3890 3489 r~ Right;
#X obj 3888 4094 r~ Right;
#X obj 3890 4694 r~ Right;
#X msg 726 848 \$1 10;
#X msg 1691 848 \$1 10;
#X msg 727 3100 \$1 10;
#X msg 1692 3100 \$1 10;
#X msg 2644 3100 \$1 20;
#X text 360 71 min, f 7;
#X text 302 92 Natural;
#X text 267 71 Maj, f 4;
#X obj -772 -807 == 24;
#X obj -583 -806 == 27;
#X obj -512 -806 == 28;
#X obj -441 -806 == 29;
#X obj -380 -806 == 30;
#X obj -311 -806 == 31;
#X obj -249 -806 == 32;
#X obj -180 -806 == 33;
#X obj -113 -806 == 34;
#X obj -48 -806 == 35;
#X floatatom 41 -616 6 -10 140 0 - - - 0;
#X symbolatom 230 103 3 0 0 0 - - - 16;
#X obj 287 -462 midi2note;
#X msg 287 -492 sharp;
#X obj -710 -807 == 25;
#X text -779 -1839 C1;
#X msg -779 -1806 32.7032, f 9;
#X text -718 -1872 C#1;
#X msg -718 -1837 34.6478, f 9;
#X text -641 -1839 D1;
#X msg -641 -1806 36.7081, f 8;
#X text -581 -1872 D#1;
#X msg -581 -1837 38.8909, f 9;
#X msg -496 -1807 41.2034, f 9;
#X text -496 -1839 E1;
#X text -406 -1841 F1;
#X msg -406 -1807 43.6535, f 9;
#X msg -341 -1837 46.2493, f 9;
#X text -341 -1870 F#1;
#X text -262 -1841 G1;
#X msg -262 -1807 48.9994, f 9;
#X msg -196 -1837 51.9131, f 9;
#X text -196 -1871 G#1;
#X msg -118 -1807 55, f 9;
#X text -118 -1839 A1;
#X text -51 -1869 A#1;
#X msg -51 -1837 58.2705, f 9;
#X text 30 -1839 B1;
#X msg 30 -1807 61.7354, f 9;
#X msg -779 -1899 24;
#X msg -718 -1899 25;
#X msg -641 -1901 26;
#X msg -581 -1901 27;
#X msg -496 -1901 28;
#X msg -406 -1901 29;
#X msg -341 -1901 30;
#X msg -262 -1901 31;
#X msg -196 -1901 32;
#X msg -118 -1901 33;
#X msg -51 -1901 34;
#X msg 30 -1901 35;
#X text -1742 -317 Natural minor;
#X text -1820 -205 Dmin;
#X text -1827 -165 D#min;
#X text -1818 -125 Emin;
#X text -1818 -85 Fmin;
#X text -1826 -45 F#min;
#X text -1820 -5 Gmin;
#X text -1828 35 G#min;
#X text -1819 75 Amin;
#X text -1827 115 A#min;
#X text -1819 155 Bmin;
#X text -1546 -203 DMaj = Bmin;
#X text -1555 -163 D#Maj = Cmin;
#X text -1820 -285 Cmin;
#X text -1828 -245 C#min;
#X text -1547 -283 CMaj = Amin;
#X text -1562 -243 C#Maj = A#min;
#X text -1633 -352 C1 Oct;
#X text -1553 -123 EMaj = C#min;
#X text -1545 -83 FMaj = Dmin;
#X text -1561 -43 F#Maj = D#min;
#X text -1546 -3 GMaj = Emin;
#X text -1553 37 G#Maj = Fmin;
#X text -1553 77 AMaj = F#min;
#X text -1554 157 BMaj = G#min;
#N canvas 0 0 450 250 (subpatch) 0;
#X array \$0-scalesarray 6 float 2;
#X coords 0 36 6 23 200 140 1;
#X restore -750 -28 graph;
#X msg -1760 -276 24 26 27 29 31 34;
#X msg -1760 -236 25 27 28 30 32 35;
#X obj -733 -63 array set \$0-scalesarray;
#X msg -1760 -196 24 26 28 29 31 33;
#X msg -1760 -156 25 27 29 30 32 34;
#X msg -1760 -116 26 28 30 31 33 35;
#X msg -1760 -76 24 27 29 31 32 34;
#X msg -1760 -36 25 28 30 32 33 35;
#X msg -1760 4 24 26 29 31 33 34;
#X msg -1760 44 25 27 30 32 34 35;
#X msg -1760 84 24 26 28 31 33 35;
#X msg -1760 124 24 25 27 29 32 34;
#X msg -1760 164 25 26 28 30 33 35;
#X msg -1442 -274 24 26 28 31 33 35;
#X msg -1442 -234 24 25 27 29 32 34;
#X msg -1442 -194 25 26 28 30 33 35;
#X msg -1442 -154 24 26 27 29 31 34;
#X msg -1442 -114 25 27 28 30 32 35;
#X msg -1442 -74 24 26 28 29 31 33;
#X msg -1442 -34 25 27 29 30 32 34;
#X msg -1442 6 26 28 30 31 33 35;
#X msg -1442 46 24 27 29 31 32 34;
#X msg -1442 86 25 28 30 32 33 35;
#X msg -1442 126 24 26 29 31 33 34;
#X msg -1442 166 25 27 30 32 34 35;
#X obj -669 401 mtof;
#X obj -625 401 mtof;
#X obj -581 401 mtof;
#X obj -538 401 mtof;
#X obj -493 401 mtof;
#X obj -449 401 mtof;
#X floatatom -669 442 5 0 0 0 - - - 0;
#X floatatom -625 442 5 0 0 0 - - - 0;
#X floatatom -581 442 5 0 0 0 - - - 0;
#X floatatom -538 442 5 0 0 0 - - - 0;
#X floatatom -493 442 5 0 0 0 - - - 0;
#X floatatom -449 442 5 0 0 0 - - - 0;
#X obj -718 295 array get \$0-scalesarray;
#X obj -811 295 bng 25 250 50 0 empty empty empty 17 7 0 10 #e4e4e4 #4d4d4d #373737;
#X msg -809 335 0;
#X obj -718 327 unpack f f f f f f;
#X floatatom -710 -772 3 0 0 0 - - - 16;
#X text -772 -881 C1;
#X text -708 -881 C#;
#X text -1344 -859 Maj;
#X text -1262 -859 min;
#X floatatom -1262 -772 5 0 0 0 - - - 0;
#X floatatom -1345 -772 5 0 0 0 - - - 0;
#X floatatom -646 -771 3 0 0 0 - - - 16;
#X obj -646 -806 == 26;
#X text -646 -881 D;
#X obj -449 29 bng 25 250 50 0 empty empty empty 17 7 0 10 #e4e4e4 #4d4d4d #373737;
#X obj -346 29 bng 25 250 50 0 empty empty empty 17 7 0 10 #e4e4e4 #4d4d4d #373737;
#X floatatom -512 -771 3 0 0 0 - - - 16;
#X floatatom -583 -771 3 0 0 0 - - - 16;
#X floatatom -441 -771 3 0 0 0 - - - 16;
#X floatatom -772 -772 3 0 0 0 - - - 16;
#X floatatom -311 -770 3 0 0 0 - - - 16;
#X floatatom -249 -770 3 0 0 0 - - - 16;
#X floatatom -113 -770 3 0 0 0 - - - 16;
#X floatatom -180 -770 3 0 0 0 - - - 16;
#X floatatom -48 -770 3 0 0 0 - - - 16;
#X floatatom -380 -771 3 0 0 0 - - - 16;
#X text -583 -881 D#;
#X text -512 -880 E;
#X text -441 -883 F;
#X text -380 -883 F#;
#X text -311 -883 G;
#X text -249 -883 G#;
#X text -180 -884 A;
#X text -113 -884 A#;
#X text -48 -884 B;
#X obj -1561 -472 *;
#X obj -1511 -472 *;
#X floatatom -1561 -441 3 0 0 0 - - - 16;
#X floatatom -1511 -441 3 0 0 0 - - - 16;
#X obj -1561 -379 bng 25 250 50 0 empty empty empty 17 7 0 10 #e4e4e4 #4d4d4d #373737;
#X obj -1511 -379 bng 25 250 50 0 empty empty empty 17 7 0 10 #e4e4e4 #4d4d4d #373737;
#X obj -1561 -408 sel 1;
#X obj -1511 -408 sel 1;
#X text -1561 -510 CMaj;
#X text -1511 -510 Cmin;
#X obj -1414 -472 *;
#X obj -1364 -472 *;
#X floatatom -1414 -441 3 0 0 0 - - - 16;
#X floatatom -1364 -441 3 0 0 0 - - - 16;
#X obj -1414 -379 bng 25 250 50 0 empty empty empty 17 7 0 10 #e4e4e4 #4d4d4d #373737;
#X obj -1364 -379 bng 25 250 50 0 empty empty empty 17 7 0 10 #e4e4e4 #4d4d4d #373737;
#X obj -1414 -408 sel 1;
#X obj -1364 -408 sel 1;
#X text -1414 -510 C#Maj;
#X text -1364 -510 C#min;
#X obj -1281 -471 *;
#X obj -1231 -471 *;
#X floatatom -1281 -440 3 0 0 0 - - - 16;
#X floatatom -1231 -440 3 0 0 0 - - - 16;
#X obj -1281 -378 bng 25 250 50 0 empty empty empty 17 7 0 10 #e4e4e4 #4d4d4d #373737;
#X obj -1231 -378 bng 25 250 50 0 empty empty empty 17 7 0 10 #e4e4e4 #4d4d4d #373737;
#X obj -1281 -407 sel 1;
#X obj -1231 -407 sel 1;
#X text -1281 -509 DMaj;
#X text -1231 -509 Dmin;
#X text -1588 -315 Natural Major/minor;
#X obj -1146 -472 *;
#X obj -1096 -472 *;
#X floatatom -1146 -441 3 0 0 0 - - - 16;
#X floatatom -1096 -441 3 0 0 0 - - - 16;
#X obj -1146 -379 bng 25 250 50 0 empty empty empty 17 7 0 10 #e4e4e4 #4d4d4d #373737;
#X obj -1096 -379 bng 25 250 50 0 empty empty empty 17 7 0 10 #e4e4e4 #4d4d4d #373737;
#X obj -1146 -408 sel 1;
#X obj -1096 -408 sel 1;
#X text -1146 -510 D#Maj;
#X text -1096 -510 D#min;
#X obj -1005 -472 *;
#X obj -955 -472 *;
#X floatatom -1005 -441 3 0 0 0 - - - 16;
#X floatatom -955 -441 3 0 0 0 - - - 16;
#X obj -1005 -379 bng 25 250 50 0 empty empty empty 17 7 0 10 #e4e4e4 #4d4d4d #373737;
#X obj -955 -379 bng 25 250 50 0 empty empty empty 17 7 0 10 #e4e4e4 #4d4d4d #373737;
#X obj -1005 -408 sel 1;
#X obj -955 -408 sel 1;
#X text -1005 -510 EMaj;
#X text -955 -510 Emin;
#X obj -869 -472 *;
#X obj -819 -472 *;
#X floatatom -869 -441 3 0 0 0 - - - 16;
#X floatatom -819 -441 3 0 0 0 - - - 16;
#X obj -869 -379 bng 25 250 50 0 empty empty empty 17 7 0 10 #e4e4e4 #4d4d4d #373737;
#X obj -819 -379 bng 25 250 50 0 empty empty empty 17 7 0 10 #e4e4e4 #4d4d4d #373737;
#X obj -869 -408 sel 1;
#X obj -819 -408 sel 1;
#X text -869 -510 FMaj;
#X text -819 -510 Fmin;
#X obj -738 -472 *;
#X obj -688 -472 *;
#X floatatom -738 -441 3 0 0 0 - - - 16;
#X floatatom -688 -441 3 0 0 0 - - - 16;
#X obj -738 -379 bng 25 250 50 0 empty empty empty 17 7 0 10 #e4e4e4 #4d4d4d #373737;
#X obj -688 -379 bng 25 250 50 0 empty empty empty 17 7 0 10 #e4e4e4 #4d4d4d #373737;
#X obj -738 -408 sel 1;
#X obj -688 -408 sel 1;
#X text -738 -510 F#Maj;
#X text -688 -510 F#min;
#X obj -603 -472 *;
#X obj -553 -472 *;
#X floatatom -603 -441 3 0 0 0 - - - 16;
#X floatatom -553 -441 3 0 0 0 - - - 16;
#X obj -603 -379 bng 25 250 50 0 empty empty empty 17 7 0 10 #e4e4e4 #4d4d4d #373737;
#X obj -553 -379 bng 25 250 50 0 empty empty empty 17 7 0 10 #e4e4e4 #4d4d4d #373737;
#X obj -603 -408 sel 1;
#X obj -553 -408 sel 1;
#X text -603 -510 GMaj;
#X text -553 -510 Gmin;
#X text -1555 117 A#Maj = Gmin;
#X obj -464 -472 *;
#X obj -414 -472 *;
#X floatatom -464 -441 3 0 0 0 - - - 16;
#X floatatom -414 -441 3 0 0 0 - - - 16;
#X obj -464 -379 bng 25 250 50 0 empty empty empty 17 7 0 10 #e4e4e4 #4d4d4d #373737;
#X obj -414 -379 bng 25 250 50 0 empty empty empty 17 7 0 10 #e4e4e4 #4d4d4d #373737;
#X obj -464 -408 sel 1;
#X obj -414 -408 sel 1;
#X text -464 -510 G#Maj;
#X text -414 -510 G#min;
#X obj -326 -472 *;
#X obj -276 -472 *;
#X floatatom -326 -441 3 0 0 0 - - - 16;
#X floatatom -276 -441 3 0 0 0 - - - 16;
#X obj -326 -379 bng 25 250 50 0 empty empty empty 17 7 0 10 #e4e4e4 #4d4d4d #373737;
#X obj -276 -379 bng 25 250 50 0 empty empty empty 17 7 0 10 #e4e4e4 #4d4d4d #373737;
#X obj -326 -408 sel 1;
#X obj -276 -408 sel 1;
#X text -326 -510 AMaj;
#X text -276 -510 Amin;
#X obj -199 -472 *;
#X obj -149 -472 *;
#X floatatom -199 -441 3 0 0 0 - - - 16;
#X floatatom -149 -441 3 0 0 0 - - - 16;
#X obj -199 -379 bng 25 250 50 0 empty empty empty 17 7 0 10 #e4e4e4 #4d4d4d #373737;
#X obj -149 -379 bng 25 250 50 0 empty empty empty 17 7 0 10 #e4e4e4 #4d4d4d #373737;
#X obj -199 -408 sel 1;
#X obj -149 -408 sel 1;
#X text -199 -510 A#Maj;
#X text -149 -510 A#min;
#X obj -69 -472 *;
#X obj -19 -472 *;
#X floatatom -69 -441 3 0 0 0 - - - 16;
#X floatatom -19 -441 3 0 0 0 - - - 16;
#X obj -69 -379 bng 25 250 50 0 empty empty empty 17 7 0 10 #e4e4e4 #4d4d4d #373737;
#X obj -19 -379 bng 25 250 50 0 empty empty empty 17 7 0 10 #e4e4e4 #4d4d4d #373737;
#X obj -69 -408 sel 1;
#X obj -19 -408 sel 1;
#X text -69 -510 BMaj;
#X text -19 -510 Bmin;
#X obj 151 168 keyboard 33 166 1 1 0 0 empty empty;
#X msg -681 247 127;
#X obj -399 87 bng 25 250 50 0 empty empty empty 17 7 0 10 #e4e4e4 #4d4d4d #373737;
#X msg -399 130 flush;
#X listbox -514 327 20 0 0 0 - - - 0;
#X obj 434 199 knob 72 4 65 0 19.5 BFHPF-gui-s BFHPF-gui-r #E4E4E4 #B7B7B7 #4D4D4D 1 0 0 0 1 270 0 0 4;
#X floatatom 434 288 7 0 0 1 Hz - - 16;
#X text 454 172 HPF;
#X obj 546 199 knob 72 107 135.08 0 128.9 BFLPF-gui-s BFLPF-gui-r #E4E4E4 #B7B7B7 #4D4D4D 1 0 0 0 1 270 0 0 107;
#X floatatom 547 288 7 0 0 1 Hz - - 16;
#X text 568 172 LPF;
#X obj 3414 4352 s~ OUTR;
#X obj 3413 2129 s~ OUTL;
#X obj 1823 -52 dac~, f 6;
#X text 474 145 Butterworth filters;
#X obj 1874 -223 *~;
#X obj 2006 -223 *~;
#X obj 56 250 knob 65 0 1 0 1 DRYWETKNOB-gui-s DRYWETKNOB-gui-r #E4E4E4 #B7B7B7 #4D4D4D 1 0 0 0 1 270 0 0 0;
#X obj 1885 -386 pack 0 10;
#X obj 1803 -343 line~;
#X obj 1807 -528 vsl 17 128 0 0.99 0 0 empty empty empty 0 -9 0 10 #e4e4e4 #4d4d4d #373737 0 1;
#X obj 1803 -386 pack 0 10;
#X obj 2098 -528 vsl 17 128 0 0.99 0 0 empty empty empty 0 -9 0 10 #e4e4e4 #4d4d4d #373737 0 1;
#X obj 2094 -386 pack 0 10;
#X obj 2017 -386 pack 0 10;
#X obj 1885 -343 line~;
#X obj 2017 -342 line~;
#X obj 2094 -342 line~;
#X obj 1837 -263 r~ Left;
#X obj 1961 -263 r~ Right;
#X obj 1792 -223 *~;
#X obj 2083 -223 *~;
#X text 56 314 DRY/WET;
#X text 1907 -655 DRY/WET SECTION;
#X obj 658 2982 vcf~ 20;
#X obj 1622 730 vcf~ 20;
#X obj 1623 2982 vcf~ 20;
#X obj 402 -312 loadbang;
#X obj 657 730 vcf~ 20;
#X obj 2574 730 vcf~ 30;
#X obj 1947 -596 tabread4 E-Exp;
#X obj 2021 -528 vsl 17 128 0 0.99 0 0 empty empty empty 0 -9 0 10 #e4e4e4 #4d4d4d #373737 0 1;
#N canvas 0 50 450 300 E-ExpSlider 0;
#X obj 156 115 t b b;
#X obj 156 153 until, f 8;
#X obj 156 188 sel 999;
#X msg 251 112 0;
#X obj 238 153 f;
#X obj 302 153 + 1;
#X obj 238 188 t f f;
#N canvas 0 0 450 250 (subpatch) 0;
#X array E-Exp 1003 float 0;
#X coords 0 0 1002 1 200 140 1;
#X restore 366 128 graph;
#X obj 215 270 tabwrite E-Exp;
#X obj 218 32 inlet;
#X obj 93 48 bng 25 250 50 0 empty empty empty 17 7 0 10 #e4e4e4 #4d4d4d #373737;
#X obj 366 73 block~ 1024;
#X obj 99 228 expr exp(-($f1-1)/200);
#X connect 0 0 1 0;
#X connect 0 1 3 0;
#X connect 1 0 2 0;
#X connect 1 0 4 0;
#X connect 2 0 1 1;
#X connect 3 0 4 1;
#X connect 4 0 5 0;
#X connect 4 0 6 0;
#X connect 4 0 2 0;
#X connect 5 0 4 1;
#X connect 6 0 12 0;
#X connect 6 1 8 1;
#X connect 9 0 0 0;
#X connect 10 0 0 0;
#X connect 12 0 8 0;
#X restore 1612 -655 pd E-ExpSlider;
#X obj 1947 -624 * 500;
#X obj 1889 -528 vsl 17 128 0 0.99 0 0 empty empty empty 0 -9 0 10 #e4e4e4 #4d4d4d #373737 0 1;
#X obj 657 999 *~ 0.006;
#X obj 1622 999 *~ 0.006;
#X obj 2574 999 *~ 0.6;
#X obj 2928 1113 *~ 0.95;
#X obj 3884 1113 *~ 0.95;
#X obj 3887 1714 *~ 0.95;
#X obj 3885 2319 *~ 0.95;
#X obj 3887 2839 *~ 0.95;
#X obj 658 3239 *~ 0.006;
#X obj 1623 3250 *~ 0.006;
#X obj 2575 3250 *~ 0.6;
#X obj 2929 3365 *~ 0.95;
#X obj 3885 3365 *~ 0.95;
#X obj 3888 3966 *~ 0.95;
#X obj 3886 4571 *~ 0.95;
#X obj 3888 5074 *~ 0.95;
#X obj 503 41 knob 55 -9 9 0 0 empty empty #eebfb8 #7c7c7c #000000 1 0 0 0 1 270 0 0 0.25;
#X text 529 16 0 dB, f 5;
#X text 554 75 +9 dB;
#X text 466 75 -9 dB;
#X floatatom 589 41 5 0 0 0 - - - 16;
#X symbolatom 567 41 2 0 0 0 - - - 16;
#X obj 646 -139 abs;
#X text 485 98 WET OUTPUT;
#X obj 1316 -515 *~;
#X obj 1463 -515 *~;
#X msg 402 -275 pluginmode;
#X obj 402 -244 s pd;
#X obj 94 -167 notein;
#X floatatom 94 -69 5 0 0 0 - - - 0;
#N canvas 0 50 450 300 MIDITOC1OCTAVE 0;
#X text 74 93 C1;
#X text 74 142 C#1;
#X obj 105 49 inlet;
#X text 152 47 Note IN;
#X text 74 194 D1;
#X text 74 246 D#1;
#X text 74 296 E1;
#X text 74 348 F1;
#X text 74 402 F#1;
#X obj 105 87 expr if($f1==0 || $f1==12 || $f1==24 || $f1==36 || $f1==48 || $f1==60 || $f1==72 || $f1==84 || $f1==96 || $f1==108 \, 24 \, $f1);
#X obj 105 136 expr if($f1==1 || $f1==13 || $f1==25 || $f1==37 || $f1==49 || $f1==61 || $f1==73 || $f1==85 || $f1==97 || $f1==109 \, 25 \, $f1);
#X obj 105 188 expr if($f1==2 || $f1==14 || $f1==26 || $f1==38 || $f1==50 || $f1==62 || $f1==74 || $f1==86 || $f1==98 || $f1==110 \, 26 \, $f1);
#X obj 105 240 expr if($f1==3 || $f1==15 || $f1==27 || $f1==39 || $f1==51 || $f1==63 || $f1==75 || $f1==87 || $f1==99 || $f1==111 \, 27 \, $f1);
#X obj 105 290 expr if($f1==4 || $f1==16 || $f1==28 || $f1==40 || $f1==52 || $f1==64 || $f1==76 || $f1==88 || $f1==100 || $f1==112 \, 28 \, $f1);
#X obj 105 342 expr if($f1==5 || $f1==17 || $f1==29 || $f1==41 || $f1==53 || $f1==65 || $f1==77 || $f1==89 || $f1==101 || $f1==113 \, 29 \, $f1);
#X obj 105 396 expr if($f1==6 || $f1==18 || $f1==30 || $f1==42 || $f1==54 || $f1==66 || $f1==78 || $f1==90 || $f1==102 || $f1==114 \, 30 \, $f1);
#X text 74 456 G1;
#X obj 105 450 expr if($f1==7 || $f1==19 || $f1==31 || $f1==43 || $f1==55 || $f1==67 || $f1==79 || $f1==91 || $f1==103 || $f1==115 \, 31 \, $f1);
#X text 74 510 G#1;
#X obj 105 504 expr if($f1==8 || $f1==20 || $f1==32 || $f1==44 || $f1==56 || $f1==68 || $f1==80 || $f1==92 || $f1==104 || $f1==116 \, 32 \, $f1);
#X text 74 562 A1;
#X obj 105 556 expr if($f1==9 || $f1==21 || $f1==33 || $f1==45 || $f1==57 || $f1==69 || $f1==81 || $f1==93 || $f1==105 || $f1==117 \, 33 \, $f1);
#X text 74 616 A#1;
#X obj 105 610 expr if($f1==10 || $f1==22 || $f1==34 || $f1==46 || $f1==58 || $f1==70 || $f1==82 || $f1==94 || $f1==106 || $f1==118 \, 34 \, $f1);
#X text 74 670 B1;
#X obj 105 664 expr if($f1==11 || $f1==23 || $f1==35 || $f1==47 || $f1==59 || $f1==71 || $f1==83 || $f1==95 || $f1==107 || $f1==119 \, 35 \, $f1);
#X obj 105 717 outlet;
#X connect 2 0 9 0;
#X connect 9 0 10 0;
#X connect 10 0 11 0;
#X connect 11 0 12 0;
#X connect 12 0 13 0;
#X connect 13 0 14 0;
#X connect 14 0 15 0;
#X connect 15 0 17 0;
#X connect 17 0 19 0;
#X connect 19 0 21 0;
#X connect 21 0 23 0;
#X connect 23 0 25 0;
#X connect 25 0 26 0;
#X restore 94 -106 pd MIDITOC1OCTAVE;
#X text 504 341 @theunknownproducer;
#X obj -199 739 s qresonant;
#X msg -199 690 \$1 20;
#X obj -199 715 line;
#X obj 689 636 r qresonant;
#X obj -199 665 int;
#X obj 1691 630 r qresonant;
#X obj 2627 572 r qresonant;
#X obj 2627 609 + 10;
#X obj 2981 572 r qresonant;
#X obj 2981 601 + 30;
#X obj 3948 1184 r qresonant;
#X obj 3948 1213 + 30;
#X obj 3954 1776 r qresonant;
#X obj 3954 1805 + 30;
#X obj 3969 2387 r qresonant;
#X obj 3969 2416 + 30;
#X obj 3980 3431 r qresonant;
#X obj 3980 3460 + 30;
#X obj 3993 4018 r qresonant;
#X obj 3993 4047 + 30;
#X obj 3974 4627 r qresonant;
#X obj 3974 4656 + 30;
#X obj 2851 2802 r qresonant;
#X obj 2851 2831 + 30;
#X obj 1655 2808 r qresonant;
#X text 1334 -695 WET OUTPUT SECTION;
#X obj 1463 -559 r~ OUTR;
#X obj 1316 -559 r~ OUTL;
#N canvas 0 50 450 300 filtersection 0;
#X obj 92 93 mtof;
#X obj 92 124 int;
#X obj 279 93 mtof;
#X obj 279 124 int;
#X obj 121 234 line;
#X obj 39 404 hip.bw~;
#X obj 158 404 hip.bw~;
#X obj 272 365 lop.bw~;
#X obj 343 365 lop.bw~;
#X obj 308 234 line;
#X text 172 29 Filters SECTION;
#X msg 121 194 \$1 10;
#X msg 308 194 \$1 10;
#X msg 122 364 8;
#X obj 39 307 inlet~;
#X obj 158 307 inlet~;
#X obj 343 404 outlet~;
#X obj 272 404 outlet~;
#X obj 154 265 loadbang;
#X obj 92 57 inlet hpfknoob;
#X obj 279 57 inlet lpfknoob;
#X obj 92 157 outlet HPFhz;
#X obj 279 157 outlet LPFhz;
#X connect 0 0 1 0;
#X connect 0 0 11 0;
#X connect 1 0 21 0;
#X connect 2 0 3 0;
#X connect 2 0 12 0;
#X connect 3 0 22 0;
#X connect 4 0 5 1;
#X connect 4 0 6 1;
#X connect 5 0 7 0;
#X connect 6 0 8 0;
#X connect 7 0 17 0;
#X connect 8 0 16 0;
#X connect 9 0 7 1;
#X connect 9 0 8 1;
#X connect 11 0 4 0;
#X connect 12 0 9 0;
#X connect 13 0 5 2;
#X connect 13 0 6 2;
#X connect 13 0 7 2;
#X connect 13 0 8 2;
#X connect 14 0 5 0;
#X connect 15 0 6 0;
#X connect 18 0 13 0;
#X connect 19 0 0 0;
#X connect 20 0 2 0;
#X restore 1792 -121 pd filtersection;
#X obj 56 157 knob 66 20 200 0 100 RESONATE-gui-s RESONATE-gui-r #eebfb8 #7c7c7c #000000 1 0 0 0 1 270 0 0 20;
#X text 53 222 RESONATE;
#X obj 1316 -473 *~ 50;
#X obj 1463 -473 *~ 50;
#X obj 1316 -428 *~;
#X obj 1463 -428 *~;
#X obj 1210 -482 line;
#X msg 1210 -515 \$1 20;
#X obj 1612 -685 loadbang;
#N canvas 0 50 450 300 symbolmp 0;
#X msg 154 125 symbol +;
#X msg 55 125 symbol -;
#X obj 105 156 t s s;
#X obj 81 63 expr if($f1>=0 \, 1 \, 0);
#X obj 81 95 sel 0;
#X obj 124 95 sel 1;
#X obj 35 190 select dummy;
#X obj 81 24 inlet;
#X obj 104 229 outlet;
#X connect 0 0 2 0;
#X connect 1 0 2 0;
#X connect 2 1 6 0;
#X connect 3 0 4 0;
#X connect 3 0 5 0;
#X connect 4 0 1 0;
#X connect 5 0 0 0;
#X connect 6 1 8 0;
#X connect 7 0 3 0;
#X restore 725 124 pd symbolmp;
#X msg 1106 -532 in 20 200;
#X obj 1400 -559 db2lin;
#X obj -105 739 s ddrywwet;
#X obj 1777 -634 r ddrywwet;
#N canvas 0 50 450 300 loadingpatch 0;
#X obj 83 251 outlet scalemajmin;
#X obj 254 251 outlet resonate;
#X msg 83 133 create;
#X obj 151 15 loadbang;
#X obj 151 69 t b b b;
#X obj 83 207 param SCALEMAJMIN;
#X obj 254 207 param RESONATE;
#X msg 254 133 range 20 200;
#X obj 418 251 outlet drywetknob;
#X obj 418 207 param DRYWETKNOB;
#X msg 165 133 range 1 2;
#X msg 418 133 range 0 1;
#X obj 591 251 outlet bfhpf;
#X obj 591 207 param BFHPF;
#X obj 716 207 param BFLPF;
#X obj 716 251 outlet bflpf;
#X msg 591 133 range 4 349;
#X msg 716 133 range 107 135.08;
#X obj 151 43 del 50;
#X connect 2 0 5 0;
#X connect 2 0 6 0;
#X connect 2 0 9 0;
#X connect 2 0 13 0;
#X connect 2 0 14 0;
#X connect 3 0 18 0;
#X connect 4 1 10 0;
#X connect 4 1 7 0;
#X connect 4 1 11 0;
#X connect 4 1 16 0;
#X connect 4 1 17 0;
#X connect 4 2 2 0;
#X connect 5 0 0 0;
#X connect 6 0 1 0;
#X connect 7 0 6 0;
#X connect 9 0 8 0;
#X connect 10 0 5 0;
#X connect 11 0 9 0;
#X connect 13 0 12 0;
#X connect 14 0 15 0;
#X connect 16 0 13 0;
#X connect 17 0 14 0;
#X connect 18 0 4 0;
#X restore -162 120 pd loadingpatch;
#X obj 1210 -450 rescale 1 5;
#X obj 646 -85 int;
#X obj 646 -112 * 100;
#X obj 646 -54 * 0.01;
#X text 131 417 If you can \, please donate at:, f 24;
#X text 306 417 paypal.com/donate/?hosted_button_id=LJUR4H98AJ7RA;
#X obj 302 40 knob 50 1 2 0 1 SCALEMAJMIN-gui-s SCALEMAJMIN-gui-r #E4E4E4 #B7B7B7 #4D4D4D 1 0 2 1 1 270 0 0 1;
#X obj -1345 -820 == 1;
#X obj -1262 -820 == 2;
#X floatatom 150 -133 5 0 0 0 - - - 0;
#X obj -811 265 del 40;
#X text 218 372 *Remember to set your midi input port as the same as the midi instrument, f 62;
#X text 218 390 *Example: PLUGDATA MIDI PORT = 0 <---> CH MIDI OUT PORT = 0, f 61;
#X msg 44 -201 1;
#X connect 2 0 758 0;
#X connect 2 0 760 0;
#X connect 2 0 876 0;
#X connect 3 0 17 0;
#X connect 4 0 18 0;
#X connect 5 0 19 0;
#X connect 6 0 20 0;
#X connect 7 0 21 0;
#X connect 7 0 1057 1;
#X connect 8 0 22 0;
#X connect 9 0 53 0;
#X connect 10 0 54 0;
#X connect 11 0 55 0;
#X connect 12 0 56 0;
#X connect 13 0 57 0;
#X connect 13 0 1054 1;
#X connect 14 0 58 0;
#X connect 17 0 9 0;
#X connect 18 0 10 0;
#X connect 19 0 11 0;
#X connect 20 0 12 0;
#X connect 21 0 13 0;
#X connect 22 0 14 0;
#X connect 23 0 1031 0;
#X connect 24 0 1064 0;
#X connect 25 1 27 0;
#X connect 26 0 27 0;
#X connect 27 0 740 0;
#X connect 28 0 24 1;
#X connect 29 0 25 0;
#X connect 30 0 1065 0;
#X connect 31 1 33 0;
#X connect 32 0 33 0;
#X connect 33 0 741 0;
#X connect 34 0 30 1;
#X connect 35 0 31 0;
#X connect 36 0 115 0;
#X connect 37 0 116 0;
#X connect 38 0 117 0;
#X connect 39 0 118 0;
#X connect 40 0 119 0;
#X connect 40 0 1058 1;
#X connect 41 0 120 0;
#X connect 42 0 1066 0;
#X connect 43 1 45 0;
#X connect 44 0 45 0;
#X connect 45 0 47 0;
#X connect 46 0 42 1;
#X connect 47 0 46 0;
#X connect 48 0 43 0;
#X connect 50 0 761 0;
#X connect 51 0 59 0;
#X connect 53 0 36 0;
#X connect 54 0 37 0;
#X connect 55 0 38 0;
#X connect 56 0 39 0;
#X connect 57 0 40 0;
#X connect 58 0 41 0;
#X connect 60 0 1057 0;
#X connect 61 0 109 1;
#X connect 61 0 178 0;
#X connect 62 0 110 1;
#X connect 62 0 179 0;
#X connect 63 0 111 1;
#X connect 63 0 180 0;
#X connect 64 0 112 1;
#X connect 64 0 181 0;
#X connect 65 0 113 1;
#X connect 65 0 182 0;
#X connect 66 0 114 1;
#X connect 66 0 183 0;
#X connect 67 0 1067 0;
#X connect 68 0 1067 0;
#X connect 69 0 1067 0;
#X connect 70 0 1067 0;
#X connect 71 0 1067 0;
#X connect 72 0 1067 0;
#X connect 73 1 75 0;
#X connect 74 0 75 0;
#X connect 75 0 77 0;
#X connect 76 0 67 1;
#X connect 77 0 76 0;
#X connect 78 1 80 0;
#X connect 79 0 80 0;
#X connect 80 0 82 0;
#X connect 81 0 68 1;
#X connect 82 0 81 0;
#X connect 83 0 73 0;
#X connect 84 0 78 0;
#X connect 85 1 87 0;
#X connect 86 0 87 0;
#X connect 87 0 89 0;
#X connect 88 0 69 1;
#X connect 89 0 88 0;
#X connect 90 0 85 0;
#X connect 91 1 93 0;
#X connect 92 0 93 0;
#X connect 93 0 95 0;
#X connect 94 0 70 1;
#X connect 95 0 94 0;
#X connect 96 0 91 0;
#X connect 97 1 99 0;
#X connect 98 0 99 0;
#X connect 99 0 101 0;
#X connect 100 0 71 1;
#X connect 101 0 100 0;
#X connect 102 0 97 0;
#X connect 103 1 105 0;
#X connect 104 0 105 0;
#X connect 105 0 107 0;
#X connect 106 0 72 1;
#X connect 107 0 106 0;
#X connect 108 0 103 0;
#X connect 109 0 67 0;
#X connect 109 0 74 0;
#X connect 109 0 83 0;
#X connect 110 0 68 0;
#X connect 110 1 79 0;
#X connect 110 1 84 0;
#X connect 111 0 69 0;
#X connect 111 1 90 0;
#X connect 111 1 86 0;
#X connect 112 0 70 0;
#X connect 112 1 96 0;
#X connect 112 1 92 0;
#X connect 113 0 71 0;
#X connect 113 1 102 0;
#X connect 113 1 98 0;
#X connect 114 0 72 0;
#X connect 114 1 108 0;
#X connect 114 1 104 0;
#X connect 115 0 61 0;
#X connect 116 0 62 0;
#X connect 117 0 63 0;
#X connect 118 0 64 0;
#X connect 119 0 65 0;
#X connect 120 0 66 0;
#X connect 121 0 1054 0;
#X connect 122 0 1058 0;
#X connect 123 0 114 0;
#X connect 123 0 113 0;
#X connect 123 0 112 0;
#X connect 123 0 111 0;
#X connect 123 0 110 0;
#X connect 123 0 109 0;
#X connect 124 0 172 1;
#X connect 124 0 240 0;
#X connect 125 0 173 1;
#X connect 125 0 241 0;
#X connect 126 0 174 1;
#X connect 126 0 242 0;
#X connect 127 0 175 1;
#X connect 127 0 243 0;
#X connect 128 0 176 1;
#X connect 128 0 244 0;
#X connect 129 0 177 1;
#X connect 129 0 245 0;
#X connect 130 0 1068 0;
#X connect 131 0 1068 0;
#X connect 132 0 1068 0;
#X connect 133 0 1068 0;
#X connect 134 0 1068 0;
#X connect 135 0 1068 0;
#X connect 136 1 138 0;
#X connect 137 0 138 0;
#X connect 138 0 140 0;
#X connect 139 0 130 1;
#X connect 140 0 139 0;
#X connect 141 1 143 0;
#X connect 142 0 143 0;
#X connect 143 0 145 0;
#X connect 144 0 131 1;
#X connect 145 0 144 0;
#X connect 146 0 136 0;
#X connect 147 0 141 0;
#X connect 148 1 150 0;
#X connect 149 0 150 0;
#X connect 150 0 152 0;
#X connect 151 0 132 1;
#X connect 152 0 151 0;
#X connect 153 0 148 0;
#X connect 154 1 156 0;
#X connect 155 0 156 0;
#X connect 156 0 158 0;
#X connect 157 0 133 1;
#X connect 158 0 157 0;
#X connect 159 0 154 0;
#X connect 160 1 162 0;
#X connect 161 0 162 0;
#X connect 162 0 164 0;
#X connect 163 0 134 1;
#X connect 164 0 163 0;
#X connect 165 0 160 0;
#X connect 166 1 168 0;
#X connect 167 0 168 0;
#X connect 168 0 170 0;
#X connect 169 0 135 1;
#X connect 170 0 169 0;
#X connect 171 0 166 0;
#X connect 172 0 130 0;
#X connect 172 0 137 0;
#X connect 172 0 146 0;
#X connect 173 0 131 0;
#X connect 173 1 142 0;
#X connect 173 1 147 0;
#X connect 174 0 132 0;
#X connect 174 1 153 0;
#X connect 174 1 149 0;
#X connect 175 0 133 0;
#X connect 175 1 159 0;
#X connect 175 1 155 0;
#X connect 176 0 134 0;
#X connect 176 1 165 0;
#X connect 176 1 161 0;
#X connect 177 0 135 0;
#X connect 177 1 171 0;
#X connect 177 1 167 0;
#X connect 178 0 124 0;
#X connect 179 0 125 0;
#X connect 180 0 126 0;
#X connect 181 0 127 0;
#X connect 182 0 128 0;
#X connect 183 0 129 0;
#X connect 184 0 177 0;
#X connect 184 0 176 0;
#X connect 184 0 175 0;
#X connect 184 0 174 0;
#X connect 184 0 173 0;
#X connect 184 0 172 0;
#X connect 186 0 234 1;
#X connect 186 0 302 0;
#X connect 187 0 235 1;
#X connect 187 0 303 0;
#X connect 188 0 236 1;
#X connect 188 0 304 0;
#X connect 189 0 237 1;
#X connect 189 0 305 0;
#X connect 190 0 238 1;
#X connect 190 0 306 0;
#X connect 191 0 239 1;
#X connect 191 0 307 0;
#X connect 192 0 1069 0;
#X connect 193 0 1069 0;
#X connect 194 0 1069 0;
#X connect 195 0 1069 0;
#X connect 196 0 1069 0;
#X connect 197 0 1069 0;
#X connect 198 1 200 0;
#X connect 199 0 200 0;
#X connect 200 0 202 0;
#X connect 201 0 192 1;
#X connect 202 0 201 0;
#X connect 203 1 205 0;
#X connect 204 0 205 0;
#X connect 205 0 207 0;
#X connect 206 0 193 1;
#X connect 207 0 206 0;
#X connect 208 0 198 0;
#X connect 209 0 203 0;
#X connect 210 1 212 0;
#X connect 211 0 212 0;
#X connect 212 0 214 0;
#X connect 213 0 194 1;
#X connect 214 0 213 0;
#X connect 215 0 210 0;
#X connect 216 1 218 0;
#X connect 217 0 218 0;
#X connect 218 0 220 0;
#X connect 219 0 195 1;
#X connect 220 0 219 0;
#X connect 221 0 216 0;
#X connect 222 1 224 0;
#X connect 223 0 224 0;
#X connect 224 0 226 0;
#X connect 225 0 196 1;
#X connect 226 0 225 0;
#X connect 227 0 222 0;
#X connect 228 1 230 0;
#X connect 229 0 230 0;
#X connect 230 0 232 0;
#X connect 231 0 197 1;
#X connect 232 0 231 0;
#X connect 233 0 228 0;
#X connect 234 0 192 0;
#X connect 234 0 199 0;
#X connect 234 0 208 0;
#X connect 235 0 193 0;
#X connect 235 1 204 0;
#X connect 235 1 209 0;
#X connect 236 0 194 0;
#X connect 236 1 215 0;
#X connect 236 1 211 0;
#X connect 237 0 195 0;
#X connect 237 1 221 0;
#X connect 237 1 217 0;
#X connect 238 0 196 0;
#X connect 238 1 227 0;
#X connect 238 1 223 0;
#X connect 239 0 197 0;
#X connect 239 1 233 0;
#X connect 239 1 229 0;
#X connect 240 0 186 0;
#X connect 241 0 187 0;
#X connect 242 0 188 0;
#X connect 243 0 189 0;
#X connect 244 0 190 0;
#X connect 245 0 191 0;
#X connect 246 0 239 0;
#X connect 246 0 238 0;
#X connect 246 0 237 0;
#X connect 246 0 236 0;
#X connect 246 0 235 0;
#X connect 246 0 234 0;
#X connect 248 0 296 1;
#X connect 248 0 364 0;
#X connect 249 0 297 1;
#X connect 249 0 365 0;
#X connect 250 0 298 1;
#X connect 250 0 366 0;
#X connect 251 0 299 1;
#X connect 251 0 367 0;
#X connect 252 0 300 1;
#X connect 252 0 368 0;
#X connect 253 0 301 1;
#X connect 253 0 369 0;
#X connect 254 0 1070 0;
#X connect 255 0 1070 0;
#X connect 256 0 1070 0;
#X connect 257 0 1070 0;
#X connect 258 0 1070 0;
#X connect 259 0 1070 0;
#X connect 260 1 262 0;
#X connect 261 0 262 0;
#X connect 262 0 264 0;
#X connect 263 0 254 1;
#X connect 264 0 263 0;
#X connect 265 1 267 0;
#X connect 266 0 267 0;
#X connect 267 0 269 0;
#X connect 268 0 255 1;
#X connect 269 0 268 0;
#X connect 270 0 260 0;
#X connect 271 0 265 0;
#X connect 272 1 274 0;
#X connect 273 0 274 0;
#X connect 274 0 276 0;
#X connect 275 0 256 1;
#X connect 276 0 275 0;
#X connect 277 0 272 0;
#X connect 278 1 280 0;
#X connect 279 0 280 0;
#X connect 280 0 282 0;
#X connect 281 0 257 1;
#X connect 282 0 281 0;
#X connect 283 0 278 0;
#X connect 284 1 286 0;
#X connect 285 0 286 0;
#X connect 286 0 288 0;
#X connect 287 0 258 1;
#X connect 288 0 287 0;
#X connect 289 0 284 0;
#X connect 290 1 292 0;
#X connect 291 0 292 0;
#X connect 292 0 294 0;
#X connect 293 0 259 1;
#X connect 294 0 293 0;
#X connect 295 0 290 0;
#X connect 296 0 254 0;
#X connect 296 0 261 0;
#X connect 296 0 270 0;
#X connect 297 0 255 0;
#X connect 297 1 266 0;
#X connect 297 1 271 0;
#X connect 298 0 256 0;
#X connect 298 1 277 0;
#X connect 298 1 273 0;
#X connect 299 0 257 0;
#X connect 299 1 283 0;
#X connect 299 1 279 0;
#X connect 300 0 258 0;
#X connect 300 1 289 0;
#X connect 300 1 285 0;
#X connect 301 0 259 0;
#X connect 301 1 295 0;
#X connect 301 1 291 0;
#X connect 302 0 248 0;
#X connect 303 0 249 0;
#X connect 304 0 250 0;
#X connect 305 0 251 0;
#X connect 306 0 252 0;
#X connect 307 0 253 0;
#X connect 308 0 301 0;
#X connect 308 0 300 0;
#X connect 308 0 299 0;
#X connect 308 0 298 0;
#X connect 308 0 297 0;
#X connect 308 0 296 0;
#X connect 310 0 358 1;
#X connect 311 0 359 1;
#X connect 312 0 360 1;
#X connect 313 0 361 1;
#X connect 314 0 362 1;
#X connect 315 0 363 1;
#X connect 316 0 1071 0;
#X connect 317 0 1071 0;
#X connect 318 0 1071 0;
#X connect 319 0 1071 0;
#X connect 320 0 1071 0;
#X connect 321 0 1071 0;
#X connect 322 1 324 0;
#X connect 323 0 324 0;
#X connect 324 0 326 0;
#X connect 325 0 316 1;
#X connect 326 0 325 0;
#X connect 327 1 329 0;
#X connect 328 0 329 0;
#X connect 329 0 331 0;
#X connect 330 0 317 1;
#X connect 331 0 330 0;
#X connect 332 0 322 0;
#X connect 333 0 327 0;
#X connect 334 1 336 0;
#X connect 335 0 336 0;
#X connect 336 0 338 0;
#X connect 337 0 318 1;
#X connect 338 0 337 0;
#X connect 339 0 334 0;
#X connect 340 1 342 0;
#X connect 341 0 342 0;
#X connect 342 0 344 0;
#X connect 343 0 319 1;
#X connect 344 0 343 0;
#X connect 345 0 340 0;
#X connect 346 1 348 0;
#X connect 347 0 348 0;
#X connect 348 0 350 0;
#X connect 349 0 320 1;
#X connect 350 0 349 0;
#X connect 351 0 346 0;
#X connect 352 1 354 0;
#X connect 353 0 354 0;
#X connect 354 0 356 0;
#X connect 355 0 321 1;
#X connect 356 0 355 0;
#X connect 357 0 352 0;
#X connect 358 0 316 0;
#X connect 358 0 323 0;
#X connect 358 0 332 0;
#X connect 359 0 317 0;
#X connect 359 1 328 0;
#X connect 359 1 333 0;
#X connect 360 0 318 0;
#X connect 360 1 339 0;
#X connect 360 1 335 0;
#X connect 361 0 319 0;
#X connect 361 1 345 0;
#X connect 361 1 341 0;
#X connect 362 0 320 0;
#X connect 362 1 351 0;
#X connect 362 1 347 0;
#X connect 363 0 321 0;
#X connect 363 1 357 0;
#X connect 363 1 353 0;
#X connect 364 0 310 0;
#X connect 365 0 311 0;
#X connect 366 0 312 0;
#X connect 367 0 313 0;
#X connect 368 0 314 0;
#X connect 369 0 315 0;
#X connect 370 0 363 0;
#X connect 370 0 362 0;
#X connect 370 0 361 0;
#X connect 370 0 360 0;
#X connect 370 0 359 0;
#X connect 370 0 358 0;
#X connect 372 0 386 0;
#X connect 373 0 387 0;
#X connect 374 0 388 0;
#X connect 375 0 389 0;
#X connect 376 0 390 0;
#X connect 376 0 1053 1;
#X connect 377 0 391 0;
#X connect 378 0 420 0;
#X connect 379 0 421 0;
#X connect 380 0 422 0;
#X connect 381 0 423 0;
#X connect 382 0 424 0;
#X connect 382 0 1055 1;
#X connect 383 0 425 0;
#X connect 386 0 378 0;
#X connect 387 0 379 0;
#X connect 388 0 380 0;
#X connect 389 0 381 0;
#X connect 390 0 382 0;
#X connect 391 0 383 0;
#X connect 392 0 1030 0;
#X connect 393 0 1072 0;
#X connect 394 1 396 0;
#X connect 395 0 396 0;
#X connect 396 0 742 0;
#X connect 397 0 393 1;
#X connect 398 0 394 0;
#X connect 399 0 1073 0;
#X connect 400 1 402 0;
#X connect 401 0 402 0;
#X connect 402 0 743 0;
#X connect 403 0 399 1;
#X connect 404 0 400 0;
#X connect 405 0 480 0;
#X connect 406 0 481 0;
#X connect 407 0 482 0;
#X connect 408 0 483 0;
#X connect 409 0 417 1;
#X connect 409 0 484 0;
#X connect 410 0 485 0;
#X connect 411 0 1074 0;
#X connect 412 1 414 0;
#X connect 413 0 414 0;
#X connect 414 0 744 0;
#X connect 415 0 411 1;
#X connect 416 0 412 0;
#X connect 417 0 411 0;
#X connect 417 1 416 0;
#X connect 417 1 413 0;
#X connect 420 0 405 0;
#X connect 421 0 406 0;
#X connect 422 0 407 0;
#X connect 423 0 408 0;
#X connect 424 0 409 0;
#X connect 425 0 410 0;
#X connect 426 0 474 1;
#X connect 426 0 540 0;
#X connect 427 0 475 1;
#X connect 427 0 541 0;
#X connect 428 0 476 1;
#X connect 428 0 542 0;
#X connect 429 0 477 1;
#X connect 429 0 543 0;
#X connect 430 0 478 1;
#X connect 430 0 544 0;
#X connect 431 0 479 1;
#X connect 431 0 545 0;
#X connect 432 0 1075 0;
#X connect 433 0 1075 0;
#X connect 434 0 1075 0;
#X connect 435 0 1075 0;
#X connect 436 0 1075 0;
#X connect 437 0 1075 0;
#X connect 438 1 440 0;
#X connect 439 0 440 0;
#X connect 440 0 442 0;
#X connect 441 0 432 1;
#X connect 442 0 441 0;
#X connect 443 1 445 0;
#X connect 444 0 445 0;
#X connect 445 0 447 0;
#X connect 446 0 433 1;
#X connect 447 0 446 0;
#X connect 448 0 438 0;
#X connect 449 0 443 0;
#X connect 450 1 452 0;
#X connect 451 0 452 0;
#X connect 452 0 454 0;
#X connect 453 0 434 1;
#X connect 454 0 453 0;
#X connect 455 0 450 0;
#X connect 456 1 458 0;
#X connect 457 0 458 0;
#X connect 458 0 460 0;
#X connect 459 0 435 1;
#X connect 460 0 459 0;
#X connect 461 0 456 0;
#X connect 462 1 464 0;
#X connect 463 0 464 0;
#X connect 464 0 466 0;
#X connect 465 0 436 1;
#X connect 466 0 465 0;
#X connect 467 0 462 0;
#X connect 468 1 470 0;
#X connect 469 0 470 0;
#X connect 470 0 472 0;
#X connect 471 0 437 1;
#X connect 472 0 471 0;
#X connect 473 0 468 0;
#X connect 474 0 432 0;
#X connect 474 0 439 0;
#X connect 474 0 448 0;
#X connect 475 0 433 0;
#X connect 475 1 444 0;
#X connect 475 1 449 0;
#X connect 476 0 434 0;
#X connect 476 1 455 0;
#X connect 476 1 451 0;
#X connect 477 0 435 0;
#X connect 477 1 461 0;
#X connect 477 1 457 0;
#X connect 478 0 436 0;
#X connect 478 1 467 0;
#X connect 478 1 463 0;
#X connect 479 0 437 0;
#X connect 479 1 473 0;
#X connect 479 1 469 0;
#X connect 480 0 426 0;
#X connect 481 0 427 0;
#X connect 482 0 428 0;
#X connect 483 0 429 0;
#X connect 484 0 430 0;
#X connect 485 0 431 0;
#X connect 486 0 534 1;
#X connect 486 0 601 0;
#X connect 487 0 535 1;
#X connect 487 0 602 0;
#X connect 488 0 536 1;
#X connect 488 0 603 0;
#X connect 489 0 537 1;
#X connect 489 0 604 0;
#X connect 490 0 538 1;
#X connect 490 0 605 0;
#X connect 491 0 539 1;
#X connect 491 0 606 0;
#X connect 492 0 1076 0;
#X connect 493 0 1076 0;
#X connect 494 0 1076 0;
#X connect 495 0 1076 0;
#X connect 496 0 1076 0;
#X connect 497 0 1076 0;
#X connect 498 1 500 0;
#X connect 499 0 500 0;
#X connect 500 0 502 0;
#X connect 501 0 492 1;
#X connect 502 0 501 0;
#X connect 503 1 505 0;
#X connect 504 0 505 0;
#X connect 505 0 507 0;
#X connect 506 0 493 1;
#X connect 507 0 506 0;
#X connect 508 0 498 0;
#X connect 509 0 503 0;
#X connect 510 1 512 0;
#X connect 511 0 512 0;
#X connect 512 0 514 0;
#X connect 513 0 494 1;
#X connect 514 0 513 0;
#X connect 515 0 510 0;
#X connect 516 1 518 0;
#X connect 517 0 518 0;
#X connect 518 0 520 0;
#X connect 519 0 495 1;
#X connect 520 0 519 0;
#X connect 521 0 516 0;
#X connect 522 1 524 0;
#X connect 523 0 524 0;
#X connect 524 0 526 0;
#X connect 525 0 496 1;
#X connect 526 0 525 0;
#X connect 527 0 522 0;
#X connect 528 1 530 0;
#X connect 529 0 530 0;
#X connect 530 0 532 0;
#X connect 531 0 497 1;
#X connect 532 0 531 0;
#X connect 533 0 528 0;
#X connect 534 0 492 0;
#X connect 534 0 499 0;
#X connect 534 0 508 0;
#X connect 535 0 493 0;
#X connect 535 1 504 0;
#X connect 535 1 509 0;
#X connect 536 0 494 0;
#X connect 536 1 515 0;
#X connect 536 1 511 0;
#X connect 537 0 495 0;
#X connect 537 1 521 0;
#X connect 537 1 517 0;
#X connect 538 0 496 0;
#X connect 538 1 527 0;
#X connect 538 1 523 0;
#X connect 539 0 497 0;
#X connect 539 1 533 0;
#X connect 539 1 529 0;
#X connect 540 0 486 0;
#X connect 541 0 487 0;
#X connect 542 0 488 0;
#X connect 543 0 489 0;
#X connect 544 0 490 0;
#X connect 545 0 491 0;
#X connect 547 0 595 1;
#X connect 547 0 662 0;
#X connect 548 0 596 1;
#X connect 548 0 663 0;
#X connect 549 0 597 1;
#X connect 549 0 664 0;
#X connect 550 0 598 1;
#X connect 550 0 665 0;
#X connect 551 0 599 1;
#X connect 551 0 666 0;
#X connect 552 0 600 1;
#X connect 552 0 667 0;
#X connect 553 0 1077 0;
#X connect 554 0 1077 0;
#X connect 555 0 1077 0;
#X connect 556 0 1077 0;
#X connect 557 0 1077 0;
#X connect 558 0 1077 0;
#X connect 559 1 561 0;
#X connect 560 0 561 0;
#X connect 561 0 563 0;
#X connect 562 0 553 1;
#X connect 563 0 562 0;
#X connect 564 1 566 0;
#X connect 565 0 566 0;
#X connect 566 0 568 0;
#X connect 567 0 554 1;
#X connect 568 0 567 0;
#X connect 569 0 559 0;
#X connect 570 0 564 0;
#X connect 571 1 573 0;
#X connect 572 0 573 0;
#X connect 573 0 575 0;
#X connect 574 0 555 1;
#X connect 575 0 574 0;
#X connect 576 0 571 0;
#X connect 577 1 579 0;
#X connect 578 0 579 0;
#X connect 579 0 581 0;
#X connect 580 0 556 1;
#X connect 581 0 580 0;
#X connect 582 0 577 0;
#X connect 583 1 585 0;
#X connect 584 0 585 0;
#X connect 585 0 587 0;
#X connect 586 0 557 1;
#X connect 587 0 586 0;
#X connect 588 0 583 0;
#X connect 589 1 591 0;
#X connect 590 0 591 0;
#X connect 591 0 593 0;
#X connect 592 0 558 1;
#X connect 593 0 592 0;
#X connect 594 0 589 0;
#X connect 595 0 553 0;
#X connect 595 0 560 0;
#X connect 595 0 569 0;
#X connect 596 0 554 0;
#X connect 596 1 565 0;
#X connect 596 1 570 0;
#X connect 597 0 555 0;
#X connect 597 1 576 0;
#X connect 597 1 572 0;
#X connect 598 0 556 0;
#X connect 598 1 582 0;
#X connect 598 1 578 0;
#X connect 599 0 557 0;
#X connect 599 1 588 0;
#X connect 599 1 584 0;
#X connect 600 0 558 0;
#X connect 600 1 594 0;
#X connect 600 1 590 0;
#X connect 601 0 547 0;
#X connect 602 0 548 0;
#X connect 603 0 549 0;
#X connect 604 0 550 0;
#X connect 605 0 551 0;
#X connect 606 0 552 0;
#X connect 608 0 656 1;
#X connect 608 0 723 0;
#X connect 609 0 657 1;
#X connect 609 0 724 0;
#X connect 610 0 658 1;
#X connect 610 0 725 0;
#X connect 611 0 659 1;
#X connect 611 0 726 0;
#X connect 612 0 660 1;
#X connect 612 0 727 0;
#X connect 613 0 661 1;
#X connect 613 0 728 0;
#X connect 614 0 1078 0;
#X connect 615 0 1078 0;
#X connect 616 0 1078 0;
#X connect 617 0 1078 0;
#X connect 618 0 1078 0;
#X connect 619 0 1078 0;
#X connect 620 1 622 0;
#X connect 621 0 622 0;
#X connect 622 0 624 0;
#X connect 623 0 614 1;
#X connect 624 0 623 0;
#X connect 625 1 627 0;
#X connect 626 0 627 0;
#X connect 627 0 629 0;
#X connect 628 0 615 1;
#X connect 629 0 628 0;
#X connect 630 0 620 0;
#X connect 631 0 625 0;
#X connect 632 1 634 0;
#X connect 633 0 634 0;
#X connect 634 0 636 0;
#X connect 635 0 616 1;
#X connect 636 0 635 0;
#X connect 637 0 632 0;
#X connect 638 1 640 0;
#X connect 639 0 640 0;
#X connect 640 0 642 0;
#X connect 641 0 617 1;
#X connect 642 0 641 0;
#X connect 643 0 638 0;
#X connect 644 1 646 0;
#X connect 645 0 646 0;
#X connect 646 0 648 0;
#X connect 647 0 618 1;
#X connect 648 0 647 0;
#X connect 649 0 644 0;
#X connect 650 1 652 0;
#X connect 651 0 652 0;
#X connect 652 0 654 0;
#X connect 653 0 619 1;
#X connect 654 0 653 0;
#X connect 655 0 650 0;
#X connect 656 0 614 0;
#X connect 656 0 621 0;
#X connect 656 0 630 0;
#X connect 657 0 615 0;
#X connect 657 1 626 0;
#X connect 657 1 631 0;
#X connect 658 0 616 0;
#X connect 658 1 637 0;
#X connect 658 1 633 0;
#X connect 659 0 617 0;
#X connect 659 1 643 0;
#X connect 659 1 639 0;
#X connect 660 0 618 0;
#X connect 660 1 649 0;
#X connect 660 1 645 0;
#X connect 661 0 619 0;
#X connect 661 1 655 0;
#X connect 661 1 651 0;
#X connect 662 0 608 0;
#X connect 663 0 609 0;
#X connect 664 0 610 0;
#X connect 665 0 611 0;
#X connect 666 0 612 0;
#X connect 667 0 613 0;
#X connect 669 0 717 1;
#X connect 670 0 718 1;
#X connect 671 0 719 1;
#X connect 672 0 720 1;
#X connect 673 0 721 1;
#X connect 674 0 722 1;
#X connect 675 0 1079 0;
#X connect 676 0 1079 0;
#X connect 677 0 1079 0;
#X connect 678 0 1079 0;
#X connect 679 0 1079 0;
#X connect 680 0 1079 0;
#X connect 681 1 683 0;
#X connect 682 0 683 0;
#X connect 683 0 685 0;
#X connect 684 0 675 1;
#X connect 685 0 684 0;
#X connect 686 1 688 0;
#X connect 687 0 688 0;
#X connect 688 0 690 0;
#X connect 689 0 676 1;
#X connect 690 0 689 0;
#X connect 691 0 681 0;
#X connect 692 0 686 0;
#X connect 693 1 695 0;
#X connect 694 0 695 0;
#X connect 695 0 697 0;
#X connect 696 0 677 1;
#X connect 697 0 696 0;
#X connect 698 0 693 0;
#X connect 699 1 701 0;
#X connect 700 0 701 0;
#X connect 701 0 703 0;
#X connect 702 0 678 1;
#X connect 703 0 702 0;
#X connect 704 0 699 0;
#X connect 705 1 707 0;
#X connect 706 0 707 0;
#X connect 707 0 709 0;
#X connect 708 0 679 1;
#X connect 709 0 708 0;
#X connect 710 0 705 0;
#X connect 711 1 713 0;
#X connect 712 0 713 0;
#X connect 713 0 715 0;
#X connect 714 0 680 1;
#X connect 715 0 714 0;
#X connect 716 0 711 0;
#X connect 717 0 675 0;
#X connect 717 0 682 0;
#X connect 717 0 691 0;
#X connect 718 0 676 0;
#X connect 718 1 687 0;
#X connect 718 1 692 0;
#X connect 719 0 677 0;
#X connect 719 1 698 0;
#X connect 719 1 694 0;
#X connect 720 0 678 0;
#X connect 720 1 704 0;
#X connect 720 1 700 0;
#X connect 721 0 679 0;
#X connect 721 1 710 0;
#X connect 721 1 706 0;
#X connect 722 0 680 0;
#X connect 722 1 716 0;
#X connect 722 1 712 0;
#X connect 723 0 669 0;
#X connect 724 0 670 0;
#X connect 725 0 671 0;
#X connect 726 0 672 0;
#X connect 727 0 673 0;
#X connect 728 0 674 0;
#X connect 730 0 731 0;
#X connect 732 0 1053 0;
#X connect 733 0 1055 0;
#X connect 734 0 417 0;
#X connect 735 0 479 0;
#X connect 735 0 478 0;
#X connect 735 0 477 0;
#X connect 735 0 476 0;
#X connect 735 0 475 0;
#X connect 735 0 474 0;
#X connect 736 0 539 0;
#X connect 736 0 538 0;
#X connect 736 0 537 0;
#X connect 736 0 536 0;
#X connect 736 0 535 0;
#X connect 736 0 534 0;
#X connect 737 0 600 0;
#X connect 737 0 599 0;
#X connect 737 0 598 0;
#X connect 737 0 597 0;
#X connect 737 0 596 0;
#X connect 737 0 595 0;
#X connect 738 0 661 0;
#X connect 738 0 660 0;
#X connect 738 0 659 0;
#X connect 738 0 658 0;
#X connect 738 0 657 0;
#X connect 738 0 656 0;
#X connect 739 0 722 0;
#X connect 739 0 721 0;
#X connect 739 0 720 0;
#X connect 739 0 719 0;
#X connect 739 0 718 0;
#X connect 739 0 717 0;
#X connect 740 0 28 0;
#X connect 741 0 34 0;
#X connect 742 0 397 0;
#X connect 743 0 403 0;
#X connect 744 0 415 0;
#X connect 748 0 881 0;
#X connect 749 0 879 0;
#X connect 750 0 878 0;
#X connect 751 0 880 0;
#X connect 752 0 887 0;
#X connect 753 0 882 0;
#X connect 754 0 883 0;
#X connect 755 0 885 0;
#X connect 756 0 884 0;
#X connect 757 0 886 0;
#X connect 758 0 748 0;
#X connect 758 0 762 0;
#X connect 758 0 874 0;
#X connect 758 0 749 0;
#X connect 758 0 750 0;
#X connect 758 0 751 0;
#X connect 758 0 752 0;
#X connect 758 0 753 0;
#X connect 758 0 754 0;
#X connect 758 0 755 0;
#X connect 758 0 756 0;
#X connect 758 0 757 0;
#X connect 760 0 759 0;
#X connect 761 0 760 0;
#X connect 762 0 866 0;
#X connect 838 0 827 0;
#X connect 839 0 827 0;
#X connect 840 0 827 0;
#X connect 841 0 827 0;
#X connect 842 0 827 0;
#X connect 843 0 827 0;
#X connect 844 0 827 0;
#X connect 845 0 827 0;
#X connect 846 0 827 0;
#X connect 847 0 827 0;
#X connect 848 0 827 0;
#X connect 849 0 827 0;
#X connect 850 0 856 0;
#X connect 851 0 857 0;
#X connect 852 0 858 0;
#X connect 853 0 859 0;
#X connect 854 0 860 0;
#X connect 855 0 861 0;
#X connect 856 0 3 0;
#X connect 856 0 372 0;
#X connect 857 0 4 0;
#X connect 857 0 373 0;
#X connect 858 0 5 0;
#X connect 858 0 374 0;
#X connect 859 0 6 0;
#X connect 859 0 375 0;
#X connect 860 0 7 0;
#X connect 860 0 376 0;
#X connect 861 0 8 0;
#X connect 861 0 377 0;
#X connect 862 0 865 0;
#X connect 863 0 864 0;
#X connect 863 0 1020 0;
#X connect 864 0 862 0;
#X connect 865 0 850 0;
#X connect 865 0 1023 0;
#X connect 865 1 851 0;
#X connect 865 1 1023 0;
#X connect 865 2 852 0;
#X connect 865 2 1023 0;
#X connect 865 3 853 0;
#X connect 865 3 1023 0;
#X connect 865 4 854 0;
#X connect 865 4 1023 0;
#X connect 865 5 855 0;
#X connect 865 5 1023 0;
#X connect 866 0 907 0;
#X connect 866 0 908 0;
#X connect 871 0 898 1;
#X connect 871 0 908 1;
#X connect 871 0 918 1;
#X connect 871 0 929 1;
#X connect 871 0 939 1;
#X connect 871 0 949 1;
#X connect 871 0 959 1;
#X connect 871 0 969 1;
#X connect 871 0 980 1;
#X connect 871 0 990 1;
#X connect 871 0 1000 1;
#X connect 871 0 1010 1;
#X connect 872 0 897 1;
#X connect 872 0 907 1;
#X connect 872 0 917 1;
#X connect 872 0 928 1;
#X connect 872 0 938 1;
#X connect 872 0 948 1;
#X connect 872 0 958 1;
#X connect 872 0 968 1;
#X connect 872 0 979 1;
#X connect 872 0 989 1;
#X connect 872 0 999 1;
#X connect 872 0 1009 1;
#X connect 873 0 917 0;
#X connect 873 0 918 0;
#X connect 874 0 873 0;
#X connect 876 0 1021 0;
#X connect 876 0 1146 0;
#X connect 876 0 1150 0;
#X connect 877 0 758 0;
#X connect 877 0 1021 0;
#X connect 877 0 1150 0;
#X connect 878 0 938 0;
#X connect 878 0 939 0;
#X connect 879 0 928 0;
#X connect 879 0 929 0;
#X connect 880 0 948 0;
#X connect 880 0 949 0;
#X connect 881 0 897 0;
#X connect 881 0 898 0;
#X connect 882 0 968 0;
#X connect 882 0 969 0;
#X connect 883 0 979 0;
#X connect 883 0 980 0;
#X connect 884 0 999 0;
#X connect 884 0 1000 0;
#X connect 885 0 989 0;
#X connect 885 0 990 0;
#X connect 886 0 1009 0;
#X connect 886 0 1010 0;
#X connect 887 0 958 0;
#X connect 887 0 959 0;
#X connect 897 0 899 0;
#X connect 898 0 900 0;
#X connect 899 0 903 0;
#X connect 900 0 904 0;
#X connect 901 0 838 0;
#X connect 902 0 841 0;
#X connect 903 0 901 0;
#X connect 904 0 902 0;
#X connect 907 0 909 0;
#X connect 908 0 910 0;
#X connect 909 0 913 0;
#X connect 910 0 914 0;
#X connect 911 0 839 0;
#X connect 912 0 842 0;
#X connect 913 0 911 0;
#X connect 914 0 912 0;
#X connect 917 0 919 0;
#X connect 918 0 920 0;
#X connect 919 0 923 0;
#X connect 920 0 924 0;
#X connect 921 0 840 0;
#X connect 922 0 843 0;
#X connect 923 0 921 0;
#X connect 924 0 922 0;
#X connect 928 0 930 0;
#X connect 929 0 931 0;
#X connect 930 0 934 0;
#X connect 931 0 935 0;
#X connect 932 0 841 0;
#X connect 933 0 844 0;
#X connect 934 0 932 0;
#X connect 935 0 933 0;
#X connect 938 0 940 0;
#X connect 939 0 941 0;
#X connect 940 0 944 0;
#X connect 941 0 945 0;
#X connect 942 0 842 0;
#X connect 943 0 845 0;
#X connect 944 0 942 0;
#X connect 945 0 943 0;
#X connect 948 0 950 0;
#X connect 949 0 951 0;
#X connect 950 0 954 0;
#X connect 951 0 955 0;
#X connect 952 0 843 0;
#X connect 953 0 846 0;
#X connect 954 0 952 0;
#X connect 955 0 953 0;
#X connect 958 0 960 0;
#X connect 959 0 961 0;
#X connect 960 0 964 0;
#X connect 961 0 965 0;
#X connect 962 0 844 0;
#X connect 963 0 847 0;
#X connect 964 0 962 0;
#X connect 965 0 963 0;
#X connect 968 0 970 0;
#X connect 969 0 971 0;
#X connect 970 0 974 0;
#X connect 971 0 975 0;
#X connect 972 0 845 0;
#X connect 973 0 848 0;
#X connect 974 0 972 0;
#X connect 975 0 973 0;
#X connect 979 0 981 0;
#X connect 980 0 982 0;
#X connect 981 0 985 0;
#X connect 982 0 986 0;
#X connect 983 0 846 0;
#X connect 984 0 849 0;
#X connect 985 0 983 0;
#X connect 986 0 984 0;
#X connect 989 0 991 0;
#X connect 990 0 992 0;
#X connect 991 0 995 0;
#X connect 992 0 996 0;
#X connect 993 0 847 0;
#X connect 994 0 838 0;
#X connect 995 0 993 0;
#X connect 996 0 994 0;
#X connect 999 0 1001 0;
#X connect 1000 0 1002 0;
#X connect 1001 0 1005 0;
#X connect 1002 0 1006 0;
#X connect 1003 0 848 0;
#X connect 1004 0 839 0;
#X connect 1005 0 1003 0;
#X connect 1006 0 1004 0;
#X connect 1009 0 1011 0;
#X connect 1010 0 1012 0;
#X connect 1011 0 1015 0;
#X connect 1012 0 1016 0;
#X connect 1013 0 849 0;
#X connect 1014 0 840 0;
#X connect 1015 0 1013 0;
#X connect 1016 0 1014 0;
#X connect 1020 0 1019 1;
#X connect 1021 0 1022 0;
#X connect 1022 0 1019 0;
#X connect 1023 0 1019 0;
#X connect 1024 0 1124 1;
#X connect 1027 0 1124 3;
#X connect 1034 0 1124 0;
#X connect 1035 0 1124 2;
#X connect 1036 0 1137 0;
#X connect 1037 0 1044 0;
#X connect 1038 0 1049 1;
#X connect 1039 0 1040 0;
#X connect 1040 0 1038 0;
#X connect 1041 0 1042 0;
#X connect 1042 0 1046 0;
#X connect 1043 0 1045 0;
#X connect 1044 0 1034 1;
#X connect 1045 0 1035 1;
#X connect 1046 0 1050 1;
#X connect 1047 0 1034 0;
#X connect 1048 0 1035 0;
#X connect 1049 0 1124 0;
#X connect 1050 0 1124 2;
#X connect 1053 0 393 0;
#X connect 1053 1 398 0;
#X connect 1053 1 395 0;
#X connect 1054 0 30 0;
#X connect 1054 1 35 0;
#X connect 1054 1 32 0;
#X connect 1055 0 399 0;
#X connect 1055 1 404 0;
#X connect 1055 1 401 0;
#X connect 1056 0 1090 0;
#X connect 1056 0 1080 0;
#X connect 1056 0 1135 0;
#X connect 1056 0 1153 0;
#X connect 1057 0 24 0;
#X connect 1057 1 29 0;
#X connect 1057 1 26 0;
#X connect 1058 0 42 0;
#X connect 1058 1 48 0;
#X connect 1058 1 44 0;
#X connect 1059 0 1060 0;
#X connect 1059 0 1063 0;
#X connect 1060 0 1043 0;
#X connect 1062 0 1059 0;
#X connect 1063 0 1037 0;
#X connect 1064 0 23 0;
#X connect 1065 0 23 0;
#X connect 1066 0 23 0;
#X connect 1067 0 23 0;
#X connect 1068 0 23 0;
#X connect 1069 0 23 0;
#X connect 1070 0 23 0;
#X connect 1071 0 23 0;
#X connect 1072 0 392 0;
#X connect 1073 0 392 0;
#X connect 1074 0 392 0;
#X connect 1075 0 392 0;
#X connect 1076 0 392 0;
#X connect 1077 0 392 0;
#X connect 1078 0 392 0;
#X connect 1079 0 392 0;
#X connect 1080 0 1086 0;
#X connect 1080 0 1134 0;
#X connect 1080 0 1136 0;
#X connect 1086 0 1142 0;
#X connect 1088 0 1127 0;
#X connect 1089 0 1128 0;
#X connect 1090 0 1091 0;
#X connect 1092 0 1094 0;
#X connect 1092 0 1149 0;
#X connect 1093 0 2 0;
#X connect 1094 0 1093 0;
#X connect 1097 0 1098 0;
#X connect 1098 0 1096 0;
#X connect 1099 0 1057 2;
#X connect 1100 0 1097 0;
#X connect 1101 0 1054 2;
#X connect 1102 0 1103 0;
#X connect 1103 0 1058 2;
#X connect 1104 0 1105 0;
#X connect 1105 0 109 2;
#X connect 1105 0 110 2;
#X connect 1105 0 111 2;
#X connect 1105 0 112 2;
#X connect 1105 0 113 2;
#X connect 1105 0 114 2;
#X connect 1105 0 172 2;
#X connect 1105 0 173 2;
#X connect 1105 0 174 2;
#X connect 1105 0 175 2;
#X connect 1105 0 176 2;
#X connect 1105 0 177 2;
#X connect 1106 0 1107 0;
#X connect 1107 0 234 2;
#X connect 1107 0 235 2;
#X connect 1107 0 236 2;
#X connect 1107 0 237 2;
#X connect 1107 0 238 2;
#X connect 1107 0 239 2;
#X connect 1108 0 1109 0;
#X connect 1109 0 296 2;
#X connect 1109 0 297 2;
#X connect 1109 0 298 2;
#X connect 1109 0 299 2;
#X connect 1109 0 300 2;
#X connect 1109 0 301 2;
#X connect 1110 0 1111 0;
#X connect 1111 0 358 2;
#X connect 1111 0 359 2;
#X connect 1111 0 360 2;
#X connect 1111 0 361 2;
#X connect 1111 0 362 2;
#X connect 1111 0 363 2;
#X connect 1112 0 1113 0;
#X connect 1113 0 595 2;
#X connect 1113 0 596 2;
#X connect 1113 0 597 2;
#X connect 1113 0 598 2;
#X connect 1113 0 599 2;
#X connect 1113 0 600 2;
#X connect 1114 0 1115 0;
#X connect 1115 0 656 2;
#X connect 1115 0 657 2;
#X connect 1115 0 658 2;
#X connect 1115 0 659 2;
#X connect 1115 0 660 2;
#X connect 1115 0 661 2;
#X connect 1116 0 1117 0;
#X connect 1117 0 717 2;
#X connect 1117 0 718 2;
#X connect 1117 0 719 2;
#X connect 1117 0 720 2;
#X connect 1117 0 721 2;
#X connect 1117 0 722 2;
#X connect 1118 0 1119 0;
#X connect 1119 0 417 2;
#X connect 1119 0 474 2;
#X connect 1119 0 475 2;
#X connect 1119 0 476 2;
#X connect 1119 0 477 2;
#X connect 1119 0 478 2;
#X connect 1119 0 479 2;
#X connect 1119 0 534 2;
#X connect 1119 0 535 2;
#X connect 1119 0 536 2;
#X connect 1119 0 537 2;
#X connect 1119 0 538 2;
#X connect 1119 0 539 2;
#X connect 1120 0 1055 2;
#X connect 1120 0 1053 2;
#X connect 1122 0 1089 0;
#X connect 1123 0 1088 0;
#X connect 1124 0 1025 0;
#X connect 1124 1 1032 0;
#X connect 1124 2 1028 0;
#X connect 1124 3 1032 1;
#X connect 1125 0 1100 0;
#X connect 1125 0 1132 0;
#X connect 1127 0 1129 0;
#X connect 1128 0 1130 0;
#X connect 1129 0 1049 0;
#X connect 1130 0 1050 0;
#X connect 1131 0 1140 0;
#X connect 1132 0 1131 0;
#X connect 1133 0 1061 0;
#X connect 1134 0 1085 0;
#X connect 1135 0 1140 0;
#X connect 1136 0 1088 1;
#X connect 1136 0 1089 1;
#X connect 1138 0 1062 0;
#X connect 1138 0 1039 0;
#X connect 1138 0 1041 0;
#X connect 1139 0 1146 0;
#X connect 1139 1 1125 0;
#X connect 1139 2 1036 0;
#X connect 1140 0 1129 1;
#X connect 1140 0 1130 1;
#X connect 1141 0 1143 0;
#X connect 1142 0 1141 0;
#X connect 1143 0 1084 0;
#X connect 1146 0 877 0;
#X connect 1146 0 1147 0;
#X connect 1146 0 1148 0;
#X connect 1147 0 872 0;
#X connect 1148 0 871 0;
#X connect 1150 0 863 0;
#X connect 1153 0 1036 0;
#X coords 0 0 1 1 654 370 1 -3 -3;
